<!--?xml version="1.0" standalone="no"?-->
              <svg id="sw-js-blob-svg" viewBox="0 0 100 100" xmlns="http://www.w3.org/2000/svg" version="1.1">
                    <defs> 
                        <linearGradient id="sw-gradient" x1="0" x2="1" y1="1" y2="0">
                            <stop id="stop1" stop-color="rgba(248, 117, 55, 1)" offset="0%"></stop>
                            <stop id="stop2" stop-color="rgba(251, 168, 31, 1)" offset="100%"></stop>
                        </linearGradient>
                    </defs>
                <path fill="url(#sw-gradient)" d="M17.7,-26.4C24.1,-23.4,31.2,-20.5,35.9,-15C40.5,-9.5,42.6,-1.6,40.9,5.4C39.2,12.4,33.6,18.3,28,23.8C22.5,29.2,17,34.1,10.4,36.6C3.8,39.1,-3.9,39.2,-11.4,37.5C-18.8,35.9,-26.1,32.4,-29.2,26.6C-32.3,20.7,-31.2,12.5,-31.1,5.3C-30.9,-2,-31.6,-8.4,-30.9,-15.8C-30.2,-23.3,-28,-31.8,-22.7,-35.3C-17.3,-38.7,-8.6,-37.1,-1.5,-34.7C5.6,-32.4,11.3,-29.4,17.7,-26.4Z" width="100%" height="100%" transform="translate(50 50)" stroke-width="0" style="transition: all 0.3s ease 0s;"></path>
              </svg>