<?xml version="1.0" encoding="utf-8"?>
<!-- Generator: Adobe Illustrator 24.1.3, SVG Export Plug-In . SVG Version: 6.00 Build 0)  -->
<svg version="1.1" xmlns="http://www.w3.org/2000/svg" xmlns:xlink="http://www.w3.org/1999/xlink" x="0px" y="0px"
	 viewBox="0 0 500 500" style="enable-background:new 0 0 500 500;" xml:space="preserve">
<style type="text/css">
	.st0{fill:url(#SVGID_1_);}
	.st1{fill:url(#SVGID_2_);}
	.st2{fill:url(#SVGID_3_);}
	.st3{fill:url(#SVGID_4_);}
	.st4{fill:url(#SVGID_5_);}
	.st5{fill:#FFFFFF;}
	.st6{display:none;}
	.st7{display:inline;}
	.st8{fill:url(#SVGID_6_);}
	.st9{fill:url(#SVGID_7_);}
	.st10{fill:url(#SVGID_8_);}
	.st11{fill:url(#SVGID_9_);}
	.st12{fill:url(#SVGID_10_);}
	.st13{fill:url(#SVGID_11_);}
	.st14{fill:url(#SVGID_12_);}
	.st15{fill:url(#SVGID_13_);}
	.st16{fill:url(#SVGID_14_);}
	.st17{fill:url(#SVGID_15_);}
	.st18{fill:url(#SVGID_16_);}
	.st19{fill:url(#SVGID_17_);}
	.st20{fill:url(#SVGID_18_);}
	.st21{fill:url(#SVGID_19_);}
	.st22{fill:url(#SVGID_20_);}
	.st23{fill:url(#SVGID_21_);}
	.st24{fill:url(#SVGID_22_);}
	.st25{fill:url(#SVGID_23_);}
</style>
<g id="BACKGROUND">
</g>
<g id="OBJECTS">
	<g>
		<g>
			<g>
				<linearGradient id="SVGID_1_" gradientUnits="userSpaceOnUse" x1="33.094" y1="175.7784" x2="477.9627" y2="175.7784">
					<stop  offset="0" style="stop-color:#A85CFF"/>
					<stop  offset="1" style="stop-color:#4C23CA"/>
				</linearGradient>
				<path class="st0" d="M114.7,175.78c0,7.81-6.33,14.14-14.14,14.14s-14.14-6.33-14.14-14.14c0-7.81,6.33-14.14,14.14-14.14
					S114.7,167.97,114.7,175.78z"/>
				<linearGradient id="SVGID_2_" gradientUnits="userSpaceOnUse" x1="26.6973" y1="231.6267" x2="471.6246" y2="231.6267">
					<stop  offset="0" style="stop-color:#A85CFF"/>
					<stop  offset="1" style="stop-color:#4C23CA"/>
				</linearGradient>
				<path class="st1" d="M57.11,231.62c0,7.78-7.07,14.14-15.71,14.14H27.18c-8.64,0-15.71-6.36-15.71-14.14
					c0-7.78,7.07-14.14,15.71-14.14H41.4C50.04,217.49,57.11,223.85,57.11,231.62z"/>
				<linearGradient id="SVGID_3_" gradientUnits="userSpaceOnUse" x1="27.9779" y1="260.6038" x2="459.5685" y2="260.6038">
					<stop  offset="0" style="stop-color:#A85CFF"/>
					<stop  offset="1" style="stop-color:#4C23CA"/>
				</linearGradient>
				<path class="st2" d="M431.15,274.74h-30.83c-9.07,0-16.5-6.36-16.5-14.14c0-7.77,7.42-14.14,16.5-14.14h9.06
					c9.08,0,16.5-6.36,16.5-14.14c0-7.78-7.42-14.14-16.5-14.14h-42.89c-9.07,0-16.49-6.36-16.49-14.14c0-7.7,7.27-14,16.22-14.13
					h15.56c9.07,0,16.5-6.36,16.5-14.14c0-7.78-7.42-14.14-16.5-14.14H263.87h-5.64H140.31c-9.08,0-16.51,6.36-16.51,14.14
					c0,7.78,7.42,14.14,16.51,14.14h9.17c8.99,0.09,16.32,6.41,16.32,14.13c0,7.77-7.42,14.14-16.5,14.14H85.87
					c-9.07,0-16.5,6.36-16.5,14.14c0,7.78,7.42,14.14,16.5,14.14h44.29c9.07,0,16.5,6.36,16.5,14.14s-7.42,14.14-16.5,14.14h-10.85
					c-9.08,0-16.5,6.36-16.5,14.14c0,7.78,7.42,14.14,16.5,14.14h40.16c9.07,0,16.5,6.36,16.5,14.14c0,7.7-7.28,14-16.23,14.13
					h-12.83c-9.07,0-16.5,6.36-16.5,14.14s7.42,14.14,16.5,14.14h117.91h5.64h117.92c9.07,0,16.5-6.36,16.5-14.14
					c0-7.77-7.42-14.14-16.5-14.14h-8.05c-8.99-0.09-16.32-6.41-16.32-14.13c0-7.77,7.42-14.14,16.51-14.14h50.63
					c9.07,0,16.5-6.36,16.5-14.14C447.65,281.1,440.23,274.74,431.15,274.74z"/>
			</g>
			<g>
				<linearGradient id="SVGID_4_" gradientUnits="userSpaceOnUse" x1="23.7362" y1="232.4106" x2="468.6955" y2="232.4106">
					<stop  offset="0" style="stop-color:#A85CFF"/>
					<stop  offset="1" style="stop-color:#4C23CA"/>
				</linearGradient>
				<path class="st3" d="M464.5,232.41c0,7.81-6.34,14.14-14.14,14.14c-7.81,0-14.14-6.33-14.14-14.14
					c0-7.81,6.33-14.14,14.14-14.14C458.16,218.27,464.5,224.6,464.5,232.41z"/>
				<linearGradient id="SVGID_5_" gradientUnits="userSpaceOnUse" x1="26.697" y1="345.6037" x2="471.6273" y2="345.6037">
					<stop  offset="0" style="stop-color:#A85CFF"/>
					<stop  offset="1" style="stop-color:#4C23CA"/>
				</linearGradient>
				<path class="st4" d="M121.39,345.6c0,7.78-7.07,14.14-15.71,14.14H91.46c-8.64,0-15.71-6.36-15.71-14.14
					c0-7.78,7.06-14.14,15.71-14.14h14.22C114.32,331.46,121.39,337.83,121.39,345.6z"/>
			</g>
		</g>
		<g>
			<path class="st5" d="M217.45,261.1c5.68,1.85,8.38,5.68,8.38,14.49v26.99c0,6.82,3.41,10.8,10.51,10.8h2.99v14.2h-7.1
				c-16.05,0-24.15-8.1-24.15-23.15v-29.27c0-4.69-2.41-6.82-6.39-6.82h-4.69v-14.49h4.69c3.98,0,6.39-2.13,6.39-6.82v-29.26
				c0-15.06,8.1-23.16,24.15-23.16h7.1v14.21h-2.99c-7.1,0-10.51,3.98-10.51,10.8v26.99C225.82,255.41,223.12,259.25,217.45,261.1z"
				/>
			<path class="st5" d="M325.83,253.85v14.49H321c-3.83,0-6.25,2.13-6.25,6.82v29.27c0,15.06-8.24,23.15-24.29,23.15h-7.1v-14.2
				h2.98c7.25,0,10.65-3.98,10.65-10.8v-26.99c0-8.81,2.56-12.64,8.24-14.49c-5.68-1.85-8.24-5.68-8.24-14.49v-26.99
				c0-6.82-3.41-10.8-10.65-10.8h-2.98v-14.21h7.1c16.05,0,24.29,8.1,24.29,23.16v29.26c0,4.69,2.41,6.82,6.25,6.82H325.83z"/>
		</g>
	</g>
	<g class="st6">
		<text transform="matrix(0.9 0 0 1 -525.7327 -218.0298)" class="st7"><tspan x="0" y="0" style="fill:#853CEF; font-family:'Montserrat-Medium'; font-size:88.0711px;">CODE</tspan><tspan x="269.41" y="0" style="font-family:'Montserrat-Bold'; font-size:88.0711px;">TECH</tspan></text>
	</g>
	<g class="st6">
		<g class="st7">
			<text transform="matrix(0.9 0 0 1 502.6964 340.293)"><tspan x="0" y="0" style="font-family:'Montserrat-Bold'; font-size:32px;">HTML</tspan><tspan x="95.52" y="0" style="font-family:'Montserrat-Medium'; font-size:32px;">Code</tspan></text>
			
				<text transform="matrix(0.9 0 0 1 520.1788 357.0088)" style="fill:#808184; font-family:'Montserrat-Regular'; font-size:11.8766px; letter-spacing:2.22;">tagline goes here</text>
		</g>
		<g class="st7">
			<linearGradient id="SVGID_6_" gradientUnits="userSpaceOnUse" x1="545.109" y1="253.0966" x2="579.4742" y2="253.0966">
				<stop  offset="0" style="stop-color:#FF9D00"/>
				<stop  offset="1" style="stop-color:#FF5500"/>
			</linearGradient>
			<polygon class="st8" points="579.47,228.51 545.11,248.07 548.92,250.22 575.34,265.42 575.34,270.48 545.42,253.54 
				545.42,257.96 579.34,277.69 579.34,263.1 562.07,253.17 579.47,243.07 			"/>
			<g>
				<linearGradient id="SVGID_7_" gradientUnits="userSpaceOnUse" x1="588.2633" y1="273.7304" x2="622.6285" y2="273.7304">
					<stop  offset="0" style="stop-color:#FF9D00"/>
					<stop  offset="1" style="stop-color:#FF5500"/>
				</linearGradient>
				<polygon class="st9" points="618.89,276.65 592.4,261.41 592.4,256.34 622.32,273.29 622.32,268.86 588.39,249.14 
					588.39,263.72 605.67,273.66 588.26,283.76 588.26,298.32 622.63,278.76 				"/>
				<linearGradient id="SVGID_8_" gradientUnits="userSpaceOnUse" x1="588.2633" y1="235.7592" x2="602.2633" y2="235.7592">
					<stop  offset="0" style="stop-color:#0064FF"/>
					<stop  offset="1" style="stop-color:#0037A2"/>
				</linearGradient>
				<circle class="st10" cx="595.26" cy="235.76" r="7"/>
			</g>
			<linearGradient id="SVGID_9_" gradientUnits="userSpaceOnUse" x1="565.4742" y1="290.5659" x2="579.4742" y2="290.5659">
				<stop  offset="0" style="stop-color:#0064FF"/>
				<stop  offset="1" style="stop-color:#0037A2"/>
			</linearGradient>
			<circle class="st11" cx="572.47" cy="290.57" r="7"/>
		</g>
	</g>
	<g class="st6">
		<g class="st7">
			<g>
				<text transform="matrix(0.9 0 0 1 500.6803 19.2754)"><tspan x="0" y="0" style="fill:#FF7700; font-family:'Montserrat-Medium'; font-size:35px;">Code</tspan><tspan x="92.82" y="0" style="fill:#0043AB; font-family:'Montserrat-Bold'; font-size:35px;">chat</tspan></text>
			</g>
			
				<text transform="matrix(0.9 0 0 1 515.5192 35.9912)" style="fill:#808184; font-family:'Montserrat-Regular'; font-size:11.8766px; letter-spacing:2.22;">tagline goes here</text>
		</g>
		<g class="st7">
			<g>
				<linearGradient id="SVGID_10_" gradientUnits="userSpaceOnUse" x1="512.321" y1="-75.1549" x2="633.3209" y2="-13.1548">
					<stop  offset="0" style="stop-color:#0064FF"/>
					<stop  offset="1" style="stop-color:#0037A2"/>
				</linearGradient>
				<path class="st12" d="M559.83-77.06v-7.56h-8.86c-3.35,0-5.98,0.3-7.89,0.89c-1.91,0.59-3.27,1.53-4.08,2.81
					c-0.81,1.28-1.22,3.15-1.22,5.6v10.63v0.33c0,1.87-0.62,3.28-1.85,4.22c-1.23,0.94-3.19,1.4-5.86,1.4v7.99
					c2.51,0,4.42,0.46,5.73,1.37c1.31,0.91,1.97,2.45,1.97,4.61v10.54c0,2.5,0.41,4.38,1.23,5.65c0.82,1.27,2.18,2.2,4.08,2.79
					c1.9,0.59,4.52,0.89,7.87,0.89h8.86v-7.56h-8.86c-1.99-0.04-3.36-0.45-4.11-1.2c-0.75-0.76-1.13-1.93-1.13-3.51v-10v-0.37
					c0-1.92-0.59-3.47-1.78-4.67c-1.18-1.19-2.93-1.98-5.24-2.36v-0.4c4.56-0.76,6.89-3.23,7.02-7.42v-10
					c0-1.56,0.37-2.72,1.11-3.48c0.74-0.76,2.12-1.17,4.13-1.24v0.03H559.83z"/>
				<linearGradient id="SVGID_11_" gradientUnits="userSpaceOnUse" x1="523.5743" y1="-97.1209" x2="644.5761" y2="-35.1199">
					<stop  offset="0" style="stop-color:#0064FF"/>
					<stop  offset="1" style="stop-color:#0037A2"/>
				</linearGradient>
				<path class="st13" d="M622.49-60.13c-1.23-0.94-1.85-2.34-1.85-4.22v-0.33v-10.63c0-2.45-0.41-4.32-1.22-5.6
					c-0.81-1.28-2.17-2.22-4.08-2.81c-1.91-0.59-4.54-0.89-7.89-0.89h-8.87v7.56h8.87v-0.03c2.01,0.07,3.38,0.48,4.12,1.24
					c0.74,0.76,1.11,1.92,1.11,3.48v10c0.12,4.19,2.46,6.67,7.02,7.42v0.4c-2.31,0.38-4.06,1.16-5.24,2.36
					c-1.19,1.19-1.78,2.75-1.78,4.67v0.37v10c0,1.58-0.38,2.75-1.13,3.51c-0.75,0.76-2.12,1.16-4.11,1.2h-8.87v7.56h8.87
					c3.35,0,5.97-0.29,7.87-0.89c1.9-0.59,3.26-1.52,4.08-2.79c0.82-1.27,1.23-3.16,1.23-5.65v-10.54c0-2.16,0.66-3.7,1.97-4.61
					c1.31-0.92,3.22-1.37,5.73-1.37v-7.99C625.68-58.73,623.72-59.19,622.49-60.13z"/>
			</g>
			<g>
				<linearGradient id="SVGID_12_" gradientUnits="userSpaceOnUse" x1="557.0485" y1="-54.2822" x2="605.4221" y2="-54.2822">
					<stop  offset="0" style="stop-color:#00BAFF"/>
					<stop  offset="1" style="stop-color:#008CFF"/>
				</linearGradient>
				<path class="st14" d="M567.76-54.28c0,3.16-2.56,5.73-5.72,5.73s-5.73-2.56-5.73-5.73c0-3.16,2.56-5.73,5.73-5.73
					S567.76-57.44,567.76-54.28z"/>
				<linearGradient id="SVGID_13_" gradientUnits="userSpaceOnUse" x1="557.0508" y1="-54.2822" x2="605.4203" y2="-54.2822">
					<stop  offset="0" style="stop-color:#00BAFF"/>
					<stop  offset="1" style="stop-color:#008CFF"/>
				</linearGradient>
				<path class="st15" d="M584.93-54.28c0,3.16-2.56,5.73-5.73,5.73c-3.16,0-5.72-2.56-5.72-5.73c0-3.16,2.56-5.73,5.72-5.73
					C582.37-60.01,584.93-57.44,584.93-54.28z"/>
				<linearGradient id="SVGID_14_" gradientUnits="userSpaceOnUse" x1="557.0497" y1="-54.2822" x2="605.4229" y2="-54.2822">
					<stop  offset="0" style="stop-color:#00BAFF"/>
					<stop  offset="1" style="stop-color:#008CFF"/>
				</linearGradient>
				<path class="st16" d="M602.11-54.28c0,3.16-2.56,5.73-5.73,5.73s-5.72-2.56-5.72-5.73c0-3.16,2.56-5.73,5.72-5.73
					S602.11-57.44,602.11-54.28z"/>
			</g>
			<g>
				<linearGradient id="SVGID_15_" gradientUnits="userSpaceOnUse" x1="562.7418" y1="-80.8345" x2="590.7418" y2="-80.8345">
					<stop  offset="0" style="stop-color:#FF9D00"/>
					<stop  offset="1" style="stop-color:#FF5500"/>
				</linearGradient>
				<rect x="563.85" y="-84.61" class="st17" width="7.45" height="7.56"/>
				<linearGradient id="SVGID_16_" gradientUnits="userSpaceOnUse" x1="562.7418" y1="-93.3291" x2="590.7418" y2="-93.3291">
					<stop  offset="0" style="stop-color:#FF9D00"/>
					<stop  offset="1" style="stop-color:#FF5500"/>
				</linearGradient>
				<rect x="578.14" y="-99.15" class="st18" width="11.46" height="11.63"/>
			</g>
		</g>
	</g>
	<g class="st6">
		<g class="st7">
			<g>
				<text transform="matrix(0.9 0 0 1 -236.1237 224.9781)"><tspan x="0" y="0" style="fill:#853CEF; font-family:'Montserrat-Medium'; font-size:32px;">CODE</tspan><tspan x="97.89" y="0" style="font-family:'Montserrat-Bold'; font-size:32px;">LOGO</tspan></text>
			</g>
			
				<text transform="matrix(0.9 0 0 1 -211.6569 241.6939)" style="fill:#808184; font-family:'Montserrat-Regular'; font-size:11.8766px; letter-spacing:2.22;">tagline goes here</text>
		</g>
		<g class="st7">
			<g>
				<g>
					<linearGradient id="SVGID_17_" gradientUnits="userSpaceOnUse" x1="-190.9596" y1="148.2203" x2="-104.2892" y2="148.2203">
						<stop  offset="0" style="stop-color:#A85CFF"/>
						<stop  offset="1" style="stop-color:#4C23CA"/>
					</linearGradient>
					<polygon class="st19" points="-106.21,178.86 -124.7,178.86 -124.7,172.86 -112.21,172.86 -112.21,123.58 -183.72,123.58 
						-183.72,172.86 -170.79,172.86 -170.79,178.86 -189.72,178.86 -189.72,117.58 -106.21,117.58 					"/>
				</g>
			</g>
			<g>
				<linearGradient id="SVGID_18_" gradientUnits="userSpaceOnUse" x1="-190.9642" y1="176.6084" x2="-104.2805" y2="176.6084">
					<stop  offset="0" style="stop-color:#A85CFF"/>
					<stop  offset="1" style="stop-color:#4C23CA"/>
				</linearGradient>
				<rect x="-162.74" y="173.42" class="st20" width="6.37" height="6.37"/>
				<linearGradient id="SVGID_19_" gradientUnits="userSpaceOnUse" x1="-190.959" y1="176.6084" x2="-104.2904" y2="176.6084">
					<stop  offset="0" style="stop-color:#A85CFF"/>
					<stop  offset="1" style="stop-color:#4C23CA"/>
				</linearGradient>
				<rect x="-151.15" y="173.42" class="st21" width="6.37" height="6.37"/>
				<linearGradient id="SVGID_20_" gradientUnits="userSpaceOnUse" x1="-190.9508" y1="176.6084" x2="-104.2943" y2="176.6084">
					<stop  offset="0" style="stop-color:#A85CFF"/>
					<stop  offset="1" style="stop-color:#4C23CA"/>
				</linearGradient>
				<rect x="-139.57" y="173.42" class="st22" width="6.37" height="6.37"/>
			</g>
			<g>
				<g>
					<linearGradient id="SVGID_21_" gradientUnits="userSpaceOnUse" x1="-177.6247" y1="148.3204" x2="-118.9619" y2="148.3204">
						<stop  offset="0" style="stop-color:#A85CFF"/>
						<stop  offset="1" style="stop-color:#4C23CA"/>
					</linearGradient>
					<polygon class="st23" points="-165.42,161.2 -178.3,148.31 -165.41,135.44 -161.17,139.68 -169.81,148.32 -161.18,156.96 					
						"/>
				</g>
				<g>
					<linearGradient id="SVGID_22_" gradientUnits="userSpaceOnUse" x1="-177.6257" y1="148.3204" x2="-118.9597" y2="148.3204">
						<stop  offset="0" style="stop-color:#A85CFF"/>
						<stop  offset="1" style="stop-color:#4C23CA"/>
					</linearGradient>
					<polygon class="st24" points="-132.35,161.2 -136.59,156.96 -127.95,148.32 -136.59,139.68 -132.35,135.44 -119.47,148.31 
											"/>
				</g>
				<g>
					<linearGradient id="SVGID_23_" gradientUnits="userSpaceOnUse" x1="-177.6249" y1="148.3223" x2="-118.9585" y2="148.3223">
						<stop  offset="0" style="stop-color:#A85CFF"/>
						<stop  offset="1" style="stop-color:#4C23CA"/>
					</linearGradient>
					<polygon class="st25" points="-148.66,161.64 -154.5,160.25 -148.51,135 -142.67,136.39 					"/>
				</g>
			</g>
		</g>
	</g>
</g>
</svg>
