<?xml version="1.0" encoding="utf-8"?>
<!-- Generator: Adobe Illustrator 24.1.3, SVG Export Plug-In . SVG Version: 6.00 Build 0)  -->
<svg version="1.1" xmlns="http://www.w3.org/2000/svg" xmlns:xlink="http://www.w3.org/1999/xlink" x="0px" y="0px"
	 viewBox="0 0 500 500" style="enable-background:new 0 0 500 500;" xml:space="preserve">
<style type="text/css">
	.st0{fill:url(#SVGID_1_);}
	.st1{fill:url(#SVGID_2_);}
	.st2{fill:url(#SVGID_3_);}
	.st3{fill:url(#SVGID_4_);}
	.st4{fill:url(#SVGID_5_);}
	.st5{fill:#FFFFFF;}
	.st6{display:none;}
	.st7{display:inline;}
	.st8{fill:#853CEF;}
	.st9{font-family:'Montserrat-Medium';}
	.st10{font-size:88.0711px;}
	.st11{font-family:'Montserrat-Bold';}
	.st12{fill:url(#SVGID_6_);}
	.st13{fill:url(#SVGID_7_);}
	.st14{fill:url(#SVGID_8_);}
	.st15{fill:url(#SVGID_9_);}
	.st16{fill:url(#SVGID_10_);}
	.st17{fill:url(#SVGID_11_);}
	.st18{fill:url(#SVGID_12_);}
	.st19{fill:url(#SVGID_13_);}
	.st20{fill:url(#SVGID_14_);}
	.st21{fill:url(#SVGID_15_);}
	.st22{fill:url(#SVGID_16_);}
	.st23{fill:url(#SVGID_17_);}
	.st24{fill:url(#SVGID_18_);}
	.st25{fill:url(#SVGID_19_);}
	.st26{fill:url(#SVGID_20_);}
	.st27{fill:url(#SVGID_21_);}
	.st28{fill:url(#SVGID_22_);}
	.st29{fill:url(#SVGID_23_);}
</style>
<g id="BACKGROUND">
</g>
<g id="OBJECTS">
	<g>
		<g>
			<g>
				<linearGradient id="SVGID_1_" gradientUnits="userSpaceOnUse" x1="-331.2762" y1="39.7781" x2="824.928" y2="39.7781">
					<stop  offset="0" style="stop-color:#A85CFF"/>
					<stop  offset="1" style="stop-color:#4C23CA"/>
				</linearGradient>
				<path class="st0" d="M-119.19,39.78c0,20.3-16.45,36.75-36.75,36.75s-36.75-16.44-36.75-36.75c0-20.3,16.45-36.75,36.75-36.75
					S-119.19,19.48-119.19,39.78z"/>
				<linearGradient id="SVGID_2_" gradientUnits="userSpaceOnUse" x1="-347.9012" y1="184.9267" x2="808.4554" y2="184.9267">
					<stop  offset="0" style="stop-color:#A85CFF"/>
					<stop  offset="1" style="stop-color:#4C23CA"/>
				</linearGradient>
				<path class="st1" d="M-268.86,184.92c0,20.22-18.37,36.75-40.82,36.75h-36.96c-22.45,0-40.82-16.54-40.82-36.75
					c0-20.21,18.37-36.74,40.82-36.74h36.96C-287.24,148.18-268.86,164.71-268.86,184.92z"/>
				<linearGradient id="SVGID_3_" gradientUnits="userSpaceOnUse" x1="-344.5729" y1="260.2376" x2="777.1219" y2="260.2376">
					<stop  offset="0" style="stop-color:#A85CFF"/>
					<stop  offset="1" style="stop-color:#4C23CA"/>
				</linearGradient>
				<path class="st2" d="M703.27,296.97h-80.14c-23.59,0-42.88-16.53-42.88-36.75c0-20.2,19.3-36.75,42.88-36.75h23.55
					c23.6,0,42.88-16.54,42.88-36.74c0-20.22-19.28-36.75-42.88-36.75H535.22c-23.59,0-42.87-16.54-42.87-36.75
					c0-20,18.9-36.39,42.16-36.72h40.44c23.59,0,42.88-16.54,42.88-36.75c0-20.22-19.3-36.75-42.88-36.75H268.5h-14.65H-52.61
					c-23.6,0-42.9,16.54-42.9,36.75c0,20.21,19.3,36.75,42.9,36.75h23.83c23.37,0.22,42.41,16.66,42.41,36.73
					c0,20.2-19.28,36.75-42.88,36.75h-164.87c-23.59,0-42.88,16.54-42.88,36.75c0,20.21,19.3,36.75,42.88,36.75h115.11
					c23.59,0,42.88,16.54,42.88,36.75S-55.43,297-79.01,297h-28.2c-23.6,0-42.88,16.53-42.88,36.74c0,20.22,19.28,36.75,42.88,36.75
					H-2.84c23.59,0,42.88,16.54,42.88,36.75c0,20-18.91,36.38-42.17,36.72h-33.33c-23.59,0-42.88,16.54-42.88,36.75
					s19.3,36.75,42.88,36.75h306.46h14.65h306.47c23.59,0,42.88-16.54,42.88-36.75c0-20.2-19.3-36.75-42.88-36.75H571.2
					c-23.37-0.22-42.4-16.65-42.4-36.73c0-20.2,19.3-36.74,42.9-36.74h131.58c23.59,0,42.88-16.54,42.88-36.75
					C746.15,313.51,726.86,296.97,703.27,296.97z"/>
			</g>
			<g>
				<linearGradient id="SVGID_4_" gradientUnits="userSpaceOnUse" x1="-355.5969" y1="186.9639" x2="800.8427" y2="186.9639">
					<stop  offset="0" style="stop-color:#A85CFF"/>
					<stop  offset="1" style="stop-color:#4C23CA"/>
				</linearGradient>
				<path class="st3" d="M789.93,186.96c0,20.3-16.47,36.75-36.76,36.75c-20.3,0-36.75-16.45-36.75-36.75
					c0-20.3,16.45-36.75,36.75-36.75C773.46,150.22,789.93,166.66,789.93,186.96z"/>
				<linearGradient id="SVGID_5_" gradientUnits="userSpaceOnUse" x1="-347.9019" y1="481.1505" x2="808.4624" y2="481.1505">
					<stop  offset="0" style="stop-color:#A85CFF"/>
					<stop  offset="1" style="stop-color:#4C23CA"/>
				</linearGradient>
				<path class="st4" d="M-101.8,481.15c0,20.22-18.37,36.75-40.82,36.75h-36.96c-22.46,0-40.82-16.53-40.82-36.75
					c0-20.21,18.36-36.75,40.82-36.75h36.96C-120.17,444.4-101.8,460.94-101.8,481.15z"/>
			</g>
		</g>
		<g>
			<path class="st5" d="M147.85,261.52c14.76,4.8,21.77,14.77,21.77,37.65v70.15c0,17.72,8.86,28.06,27.32,28.06h7.76v36.92h-18.47
				c-41.71,0-62.78-21.04-62.78-60.17v-76.06c0-12.18-6.26-17.72-16.61-17.72H94.68v-37.66h12.18c10.35,0,16.61-5.54,16.61-17.72
				v-76.05c0-39.14,21.06-60.19,62.78-60.19h18.47v36.92h-7.76c-18.47,0-27.32,10.33-27.32,28.06v70.15
				C169.62,246.75,162.61,256.71,147.85,261.52z"/>
			<path class="st5" d="M429.55,242.68v37.66h-12.56c-9.96,0-16.24,5.54-16.24,17.72v76.06c0,39.13-21.42,60.17-63.13,60.17h-18.47
				v-36.92h7.75c18.83,0,27.69-10.34,27.69-28.06v-70.15c0-22.89,6.66-32.86,21.42-37.65c-14.76-4.8-21.42-14.77-21.42-37.66v-70.15
				c0-17.73-8.86-28.06-27.69-28.06h-7.75V88.72h18.47c41.71,0,63.13,21.05,63.13,60.19v76.05c0,12.18,6.27,17.72,16.24,17.72
				H429.55z"/>
		</g>
	</g>
	<g class="st6">
		<text transform="matrix(0.9 0 0 1 16.6096 278.3106)" class="st7"><tspan x="0" y="0" class="st8 st9 st10">CODE</tspan><tspan x="269.41" y="0" class="st11 st10">TECH</tspan></text>
	</g>
	<g class="st6">
		<g class="st7">
			<text transform="matrix(0.9 0 0 1 502.6964 340.293)"><tspan x="0" y="0" class="st11" style="font-size:32px;">HTML</tspan><tspan x="95.52" y="0" class="st9" style="font-size:32px;">Code</tspan></text>
			
				<text transform="matrix(0.9 0 0 1 520.1788 357.0088)" style="fill:#808184; font-family:'Montserrat-Regular'; font-size:11.8766px; letter-spacing:2.22;">tagline goes here</text>
		</g>
		<g class="st7">
			<linearGradient id="SVGID_6_" gradientUnits="userSpaceOnUse" x1="545.109" y1="253.0966" x2="579.4742" y2="253.0966">
				<stop  offset="0" style="stop-color:#FF9D00"/>
				<stop  offset="1" style="stop-color:#FF5500"/>
			</linearGradient>
			<polygon class="st12" points="579.47,228.51 545.11,248.07 548.92,250.22 575.34,265.42 575.34,270.48 545.42,253.54 
				545.42,257.96 579.34,277.69 579.34,263.1 562.07,253.17 579.47,243.07 			"/>
			<g>
				<linearGradient id="SVGID_7_" gradientUnits="userSpaceOnUse" x1="588.2633" y1="273.7304" x2="622.6285" y2="273.7304">
					<stop  offset="0" style="stop-color:#FF9D00"/>
					<stop  offset="1" style="stop-color:#FF5500"/>
				</linearGradient>
				<polygon class="st13" points="618.89,276.65 592.4,261.41 592.4,256.34 622.32,273.29 622.32,268.86 588.39,249.14 
					588.39,263.72 605.67,273.66 588.26,283.76 588.26,298.32 622.63,278.76 				"/>
				<linearGradient id="SVGID_8_" gradientUnits="userSpaceOnUse" x1="588.2633" y1="235.7592" x2="602.2633" y2="235.7592">
					<stop  offset="0" style="stop-color:#0064FF"/>
					<stop  offset="1" style="stop-color:#0037A2"/>
				</linearGradient>
				<circle class="st14" cx="595.26" cy="235.76" r="7"/>
			</g>
			<linearGradient id="SVGID_9_" gradientUnits="userSpaceOnUse" x1="565.4742" y1="290.5659" x2="579.4742" y2="290.5659">
				<stop  offset="0" style="stop-color:#0064FF"/>
				<stop  offset="1" style="stop-color:#0037A2"/>
			</linearGradient>
			<circle class="st15" cx="572.47" cy="290.57" r="7"/>
		</g>
	</g>
	<g class="st6">
		<g class="st7">
			<g>
				<text transform="matrix(0.9 0 0 1 500.6803 19.2754)"><tspan x="0" y="0" class="st9" style="fill:#FF7700; font-size:35px;">Code</tspan><tspan x="92.82" y="0" class="st11" style="fill:#0043AB; font-size:35px;">chat</tspan></text>
			</g>
			
				<text transform="matrix(0.9 0 0 1 515.5192 35.9912)" style="fill:#808184; font-family:'Montserrat-Regular'; font-size:11.8766px; letter-spacing:2.22;">tagline goes here</text>
		</g>
		<g class="st7">
			<g>
				<linearGradient id="SVGID_10_" gradientUnits="userSpaceOnUse" x1="512.321" y1="-75.1549" x2="633.3209" y2="-13.1548">
					<stop  offset="0" style="stop-color:#0064FF"/>
					<stop  offset="1" style="stop-color:#0037A2"/>
				</linearGradient>
				<path class="st16" d="M559.83-77.06v-7.56h-8.86c-3.35,0-5.98,0.3-7.89,0.89c-1.91,0.59-3.27,1.53-4.08,2.81
					c-0.81,1.28-1.22,3.15-1.22,5.6v10.63v0.33c0,1.87-0.62,3.28-1.85,4.22c-1.23,0.94-3.19,1.4-5.86,1.4v7.99
					c2.51,0,4.42,0.46,5.73,1.37c1.31,0.91,1.97,2.45,1.97,4.61v10.54c0,2.5,0.41,4.38,1.23,5.65c0.82,1.27,2.18,2.2,4.08,2.79
					c1.9,0.59,4.52,0.89,7.87,0.89h8.86v-7.56h-8.86c-1.99-0.04-3.36-0.45-4.11-1.2c-0.75-0.76-1.13-1.93-1.13-3.51v-10v-0.37
					c0-1.92-0.59-3.47-1.78-4.67c-1.18-1.19-2.93-1.98-5.24-2.36v-0.4c4.56-0.76,6.89-3.23,7.02-7.42v-10
					c0-1.56,0.37-2.72,1.11-3.48c0.74-0.76,2.12-1.17,4.13-1.24v0.03H559.83z"/>
				<linearGradient id="SVGID_11_" gradientUnits="userSpaceOnUse" x1="523.5743" y1="-97.1209" x2="644.5761" y2="-35.1199">
					<stop  offset="0" style="stop-color:#0064FF"/>
					<stop  offset="1" style="stop-color:#0037A2"/>
				</linearGradient>
				<path class="st17" d="M622.49-60.13c-1.23-0.94-1.85-2.34-1.85-4.22v-0.33v-10.63c0-2.45-0.41-4.32-1.22-5.6
					c-0.81-1.28-2.17-2.22-4.08-2.81c-1.91-0.59-4.54-0.89-7.89-0.89h-8.87v7.56h8.87v-0.03c2.01,0.07,3.38,0.48,4.12,1.24
					c0.74,0.76,1.11,1.92,1.11,3.48v10c0.12,4.19,2.46,6.67,7.02,7.42v0.4c-2.31,0.38-4.06,1.16-5.24,2.36
					c-1.19,1.19-1.78,2.75-1.78,4.67v0.37v10c0,1.58-0.38,2.75-1.13,3.51c-0.75,0.76-2.12,1.16-4.11,1.2h-8.87v7.56h8.87
					c3.35,0,5.97-0.29,7.87-0.89c1.9-0.59,3.26-1.52,4.08-2.79c0.82-1.27,1.23-3.16,1.23-5.65v-10.54c0-2.16,0.66-3.7,1.97-4.61
					c1.31-0.92,3.22-1.37,5.73-1.37v-7.99C625.68-58.73,623.72-59.19,622.49-60.13z"/>
			</g>
			<g>
				<linearGradient id="SVGID_12_" gradientUnits="userSpaceOnUse" x1="557.0485" y1="-54.2822" x2="605.4221" y2="-54.2822">
					<stop  offset="0" style="stop-color:#00BAFF"/>
					<stop  offset="1" style="stop-color:#008CFF"/>
				</linearGradient>
				<path class="st18" d="M567.76-54.28c0,3.16-2.56,5.73-5.72,5.73s-5.73-2.56-5.73-5.73c0-3.16,2.56-5.73,5.73-5.73
					S567.76-57.44,567.76-54.28z"/>
				<linearGradient id="SVGID_13_" gradientUnits="userSpaceOnUse" x1="557.0508" y1="-54.2822" x2="605.4203" y2="-54.2822">
					<stop  offset="0" style="stop-color:#00BAFF"/>
					<stop  offset="1" style="stop-color:#008CFF"/>
				</linearGradient>
				<path class="st19" d="M584.93-54.28c0,3.16-2.56,5.73-5.73,5.73c-3.16,0-5.72-2.56-5.72-5.73c0-3.16,2.56-5.73,5.72-5.73
					C582.37-60.01,584.93-57.44,584.93-54.28z"/>
				<linearGradient id="SVGID_14_" gradientUnits="userSpaceOnUse" x1="557.0497" y1="-54.2822" x2="605.4229" y2="-54.2822">
					<stop  offset="0" style="stop-color:#00BAFF"/>
					<stop  offset="1" style="stop-color:#008CFF"/>
				</linearGradient>
				<path class="st20" d="M602.11-54.28c0,3.16-2.56,5.73-5.73,5.73s-5.72-2.56-5.72-5.73c0-3.16,2.56-5.73,5.72-5.73
					S602.11-57.44,602.11-54.28z"/>
			</g>
			<g>
				<linearGradient id="SVGID_15_" gradientUnits="userSpaceOnUse" x1="562.7418" y1="-80.8345" x2="590.7418" y2="-80.8345">
					<stop  offset="0" style="stop-color:#FF9D00"/>
					<stop  offset="1" style="stop-color:#FF5500"/>
				</linearGradient>
				<rect x="563.85" y="-84.61" class="st21" width="7.45" height="7.56"/>
				<linearGradient id="SVGID_16_" gradientUnits="userSpaceOnUse" x1="562.7418" y1="-93.3291" x2="590.7418" y2="-93.3291">
					<stop  offset="0" style="stop-color:#FF9D00"/>
					<stop  offset="1" style="stop-color:#FF5500"/>
				</linearGradient>
				<rect x="578.14" y="-99.15" class="st22" width="11.46" height="11.63"/>
			</g>
		</g>
	</g>
	<g class="st6">
		<g class="st7">
			<g>
				<text transform="matrix(0.9 0 0 1 -236.1237 224.9781)"><tspan x="0" y="0" class="st8 st9" style="font-size:32px;">CODE</tspan><tspan x="97.89" y="0" class="st11" style="font-size:32px;">LOGO</tspan></text>
			</g>
			
				<text transform="matrix(0.9 0 0 1 -211.6569 241.6939)" style="fill:#808184; font-family:'Montserrat-Regular'; font-size:11.8766px; letter-spacing:2.22;">tagline goes here</text>
		</g>
		<g class="st7">
			<g>
				<g>
					<linearGradient id="SVGID_17_" gradientUnits="userSpaceOnUse" x1="-190.9596" y1="148.2203" x2="-104.2892" y2="148.2203">
						<stop  offset="0" style="stop-color:#A85CFF"/>
						<stop  offset="1" style="stop-color:#4C23CA"/>
					</linearGradient>
					<polygon class="st23" points="-106.21,178.86 -124.7,178.86 -124.7,172.86 -112.21,172.86 -112.21,123.58 -183.72,123.58 
						-183.72,172.86 -170.79,172.86 -170.79,178.86 -189.72,178.86 -189.72,117.58 -106.21,117.58 					"/>
				</g>
			</g>
			<g>
				<linearGradient id="SVGID_18_" gradientUnits="userSpaceOnUse" x1="-190.9642" y1="176.6084" x2="-104.2805" y2="176.6084">
					<stop  offset="0" style="stop-color:#A85CFF"/>
					<stop  offset="1" style="stop-color:#4C23CA"/>
				</linearGradient>
				<rect x="-162.74" y="173.42" class="st24" width="6.37" height="6.37"/>
				<linearGradient id="SVGID_19_" gradientUnits="userSpaceOnUse" x1="-190.959" y1="176.6084" x2="-104.2904" y2="176.6084">
					<stop  offset="0" style="stop-color:#A85CFF"/>
					<stop  offset="1" style="stop-color:#4C23CA"/>
				</linearGradient>
				<rect x="-151.15" y="173.42" class="st25" width="6.37" height="6.37"/>
				<linearGradient id="SVGID_20_" gradientUnits="userSpaceOnUse" x1="-190.9508" y1="176.6084" x2="-104.2943" y2="176.6084">
					<stop  offset="0" style="stop-color:#A85CFF"/>
					<stop  offset="1" style="stop-color:#4C23CA"/>
				</linearGradient>
				<rect x="-139.57" y="173.42" class="st26" width="6.37" height="6.37"/>
			</g>
			<g>
				<g>
					<linearGradient id="SVGID_21_" gradientUnits="userSpaceOnUse" x1="-177.6247" y1="148.3204" x2="-118.9619" y2="148.3204">
						<stop  offset="0" style="stop-color:#A85CFF"/>
						<stop  offset="1" style="stop-color:#4C23CA"/>
					</linearGradient>
					<polygon class="st27" points="-165.42,161.2 -178.3,148.31 -165.41,135.44 -161.17,139.68 -169.81,148.32 -161.18,156.96 					
						"/>
				</g>
				<g>
					<linearGradient id="SVGID_22_" gradientUnits="userSpaceOnUse" x1="-177.6257" y1="148.3204" x2="-118.9597" y2="148.3204">
						<stop  offset="0" style="stop-color:#A85CFF"/>
						<stop  offset="1" style="stop-color:#4C23CA"/>
					</linearGradient>
					<polygon class="st28" points="-132.35,161.2 -136.59,156.96 -127.95,148.32 -136.59,139.68 -132.35,135.44 -119.47,148.31 
											"/>
				</g>
				<g>
					<linearGradient id="SVGID_23_" gradientUnits="userSpaceOnUse" x1="-177.6249" y1="148.3223" x2="-118.9585" y2="148.3223">
						<stop  offset="0" style="stop-color:#A85CFF"/>
						<stop  offset="1" style="stop-color:#4C23CA"/>
					</linearGradient>
					<polygon class="st29" points="-148.66,161.64 -154.5,160.25 -148.51,135 -142.67,136.39 					"/>
				</g>
			</g>
		</g>
	</g>
</g>
</svg>
