<?xml version="1.0" encoding="utf-8"?>
<!-- Generator: Adobe Illustrator 24.1.3, SVG Export Plug-In . SVG Version: 6.00 Build 0)  -->
<svg version="1.1" xmlns="http://www.w3.org/2000/svg" xmlns:xlink="http://www.w3.org/1999/xlink" x="0px" y="0px"
	 viewBox="0 0 500 500" style="enable-background:new 0 0 500 500;" xml:space="preserve">
<style type="text/css">
	.st0{fill:#DAE8EF;}
	.st1{fill:#CCD9E2;}
	.st2{fill:#BCCED8;}
	.st3{fill:#112B46;}
	.st4{fill:#1D262D;}
	.st5{fill:#606BF1;}
	.st6{fill:#FBD15B;}
	.st7{fill:#FF8578;}
	.st8{fill:#F9FBFC;}
	.st9{fill:#F1F2F2;}
	.st10{fill:url(#SVGID_1_);}
	.st11{fill:url(#SVGID_2_);}
	.st12{fill:#F7B094;}
	.st13{fill:#3D3D7A;}
	.st14{fill:#0A2033;}
	.st15{fill:#30475E;}
	.st16{fill:url(#SVGID_3_);}
	.st17{fill:#56548C;}
	.st18{fill:url(#SVGID_4_);}
	.st19{fill:#F4675D;}
	.st20{fill:url(#SVGID_5_);}
	.st21{fill:#E8987C;}
	.st22{fill:url(#SVGID_6_);}
	.st23{fill:#6D4B35;}
	.st24{fill:#ABB5BA;}
	.st25{fill:#8495A0;}
	.st26{fill:none;}
	.st27{fill:#141B56;}
	.st28{fill:#A5B7C6;}
	.st29{fill:url(#SVGID_7_);}
	.st30{fill:#747DED;}
	.st31{fill:url(#SVGID_8_);}
	.st32{fill:url(#SVGID_9_);}
	.st33{fill:#95A8B5;}
</style>
<g id="BACKGROUND">
	<path class="st0" d="M489.7,310.6L472.2,433.52H27.08l-13.15-93.77c-1.46-10.51,4.35-20.69,14.15-24.76l39.51-16.4v-39.29
		c0-11.58,8.48-21.39,19.93-23.06l9.34-1.37l15.69-53.06c2.92-9.91,12.02-16.69,22.34-16.69h160.5c6.11,0,11.7,2.36,15.87,6.23
		c4.17,3.89,6.92,9.29,7.37,15.38l76.43,8.07c11.35,1.2,20.15,10.42,20.82,21.81l3.09,53.02l54.01,15.26
		C484.19,288.06,491.34,299.05,489.7,310.6z"/>
	<path class="st1" d="M53.76,335.95l13.9,97.57h353.32l10.43-74.43c1.16-8.34-3.45-16.42-11.23-19.66l-31.36-13.01v-31.19
		c0-9.19-6.73-16.98-15.82-18.3l-7.42-1.09l-12.46-42.12c-2.32-7.87-9.54-13.25-17.73-13.25h-127.4c-4.85,0-9.28,1.87-12.59,4.94
		c-3.31,3.08-5.49,7.37-5.85,12.21l-60.66,6.4c-9.01,0.96-15.99,8.27-16.53,17.31l-2.45,42.08l-42.87,12.11
		C58.14,318.06,52.46,326.79,53.76,335.95z"/>
	<path class="st2" d="M345.25,397.16c0-10.52-7.7-19.43-18.1-20.95l-8.49-1.24l-14.25-48.2c-2.66-9-10.92-15.16-20.29-15.16H138.3
		c-5.55,0-10.63,2.14-14.41,5.66c-3.79,3.53-6.28,8.44-6.69,13.97l-63.13,6.66l13.62,95.62h279.16l-1.6-0.66V397.16z"/>
</g>
<g id="OBJECTS">
	<g>
		<g>
			<g>
				<g>
					<rect x="106.16" y="82.48" class="st3" width="108.31" height="101.09"/>
				</g>
				<g>
					<rect x="106.16" y="82.48" class="st4" width="108.31" height="10.69"/>
				</g>
				<g>
					<g>
						<path class="st5" d="M191.06,87.95c0,1.08-0.88,1.96-1.96,1.96c-1.08,0-1.96-0.88-1.96-1.96c0-1.08,0.88-1.96,1.96-1.96
							C190.18,85.99,191.06,86.87,191.06,87.95z"/>
					</g>
					<g>
						<path class="st6" d="M199.25,87.95c0,1.08-0.88,1.96-1.96,1.96c-1.08,0-1.96-0.88-1.96-1.96c0-1.08,0.88-1.96,1.96-1.96
							C198.37,85.99,199.25,86.87,199.25,87.95z"/>
					</g>
					<g>
						<path class="st7" d="M206.84,88.15c0,1.08-0.88,1.96-1.96,1.96c-1.08,0-1.96-0.88-1.96-1.96s0.88-1.96,1.96-1.96
							C205.97,86.2,206.84,87.07,206.84,88.15z"/>
					</g>
				</g>
				<g>
					<g>
						<g>
							<rect x="125.42" y="103.11" class="st7" width="15.34" height="1.29"/>
						</g>
						<g>
							<rect x="143.43" y="103.11" class="st6" width="15.34" height="1.29"/>
						</g>
						<g>
							<rect x="130.17" y="110.06" class="st5" width="23.79" height="1.29"/>
						</g>
						<g>
							<rect x="157.89" y="110.06" class="st7" width="12.09" height="1.29"/>
						</g>
						<g>
							<rect x="138.42" y="117" class="st6" width="10.45" height="1.29"/>
						</g>
						<g>
							<rect x="154.91" y="117" class="st6" width="34.66" height="1.29"/>
						</g>
						<g>
							<rect x="146.53" y="123.95" class="st5" width="39.61" height="1.29"/>
						</g>
						<g>
							<rect x="136.63" y="130.89" class="st7" width="12.19" height="1.29"/>
						</g>
						<g>
							<rect x="154.04" y="130.89" class="st5" width="12.19" height="1.29"/>
						</g>
					</g>
					<g>
						<g>
							<rect x="125.42" y="166.93" class="st7" width="17.73" height="1.29"/>
						</g>
						<g>
							<rect x="149.37" y="166.93" class="st6" width="17.73" height="1.29"/>
						</g>
						<g>
							<rect x="172.67" y="166.93" class="st7" width="17.73" height="1.29"/>
						</g>
						<g>
							<rect x="130.17" y="159.98" class="st5" width="34.66" height="1.29"/>
						</g>
						<g>
							<rect x="170.23" y="159.98" class="st7" width="34.66" height="1.29"/>
						</g>
						<g>
							<rect x="138.42" y="153.04" class="st7" width="34.39" height="1.29"/>
						</g>
						<g>
							<rect x="175.81" y="153.04" class="st6" width="9.57" height="1.29"/>
						</g>
						<g>
							<rect x="136.17" y="146.09" class="st6" width="12.95" height="1.29"/>
						</g>
						<g>
							<rect x="156" y="146.09" class="st5" width="12.95" height="1.29"/>
						</g>
						<g>
							<rect x="177.27" y="146.09" class="st7" width="12.95" height="1.29"/>
						</g>
						<g>
							<rect x="151.18" y="139.15" class="st6" width="18.16" height="1.29"/>
						</g>
						<g>
							<rect x="126.18" y="139.15" class="st5" width="18.16" height="1.29"/>
						</g>
					</g>
				</g>
				<g>
					<g>
						<g>
							<rect x="115.38" y="101.87" class="st8" width="1.65" height="1.65"/>
						</g>
					</g>
					<g>
						<g>
							<path class="st8" d="M117.03,162.43h-1.65v-3.37h1.65V162.43z M117.03,154.01h-1.65v-3.37h1.65V154.01z M117.03,145.6h-1.65
								v-3.37h1.65V145.6z M117.03,137.18h-1.65v-3.37h1.65V137.18z M117.03,128.77h-1.65v-3.37h1.65V128.77z M117.03,120.35h-1.65
								v-3.37h1.65V120.35z M117.03,111.94h-1.65v-3.37h1.65V111.94z"/>
						</g>
					</g>
					<g>
						<g>
							<rect x="115.38" y="167.48" class="st8" width="1.65" height="1.65"/>
						</g>
					</g>
				</g>
			</g>
			<g>
				<g>
					<rect x="237.78" y="61.01" class="st7" width="89.19" height="54.97"/>
				</g>
				<g>
					<path class="st8" d="M272.42,83.12l-10.61,4.53l10.61,4.46l-1.39,3.21l-12.73-5.69V85.7l12.73-5.72L272.42,83.12z"/>
					<path class="st8" d="M288.06,72.64l-7.7,29.58l-3.67-0.86l7.74-29.55L288.06,72.64z"/>
					<path class="st8" d="M306.47,85.7v3.93l-12.73,5.69l-1.39-3.21l10.58-4.46l-10.58-4.53l1.39-3.14L306.47,85.7z"/>
				</g>
			</g>
			<g>
				<g>
					<rect x="323.9" y="167.51" class="st5" width="50.8" height="36.19"/>
				</g>
				<g>
					<path class="st9" d="M345.15,175.32c-1.63,0-2.18,0.44-2.18,1.66v5.45c0,2.13-0.88,2.78-2.36,3.19
						c1.48,0.39,2.36,1.04,2.36,3.14v5.45c0,1.22,0.57,1.66,2.18,1.66v2.39c-4.12,0-5.29-1.32-5.29-4.07v-5.16
						c0-1.48-0.39-2.05-1.74-2.05v-2.72c1.35,0,1.74-0.6,1.74-2.07v-5.16c0-2.78,1.17-4.07,5.29-4.07V175.32z"/>
					<path class="st9" d="M358.74,177.01v5.16c0,1.48,0.39,2.07,1.76,2.07v2.72c-1.37,0-1.76,0.57-1.76,2.05v5.16
						c0,2.75-1.17,4.07-5.29,4.07v-2.39c1.61,0,2.18-0.44,2.18-1.66v-5.45c0-2.1,0.88-2.75,2.36-3.14
						c-1.48-0.42-2.36-1.06-2.36-3.19v-5.45c0-1.22-0.54-1.66-2.18-1.66v-2.39C357.58,172.93,358.74,174.23,358.74,177.01z"/>
				</g>
			</g>
			<g>
				<g>
					<rect x="71.69" y="68.89" class="st6" width="56.99" height="38.12"/>
				</g>
				<g>
					<g>
						<path class="st8" d="M90.55,79.83c-2.72,3.41-2.68,8.38,0.09,11.75c3.15,3.82,8.55,4.44,12.42,1.85l5.98,5.98
							c0.25,0.25,0.66,0.25,0.91,0l1.68-1.68c0.25-0.25,0.25-0.66,0-0.91l-5.98-5.98c2.42-3.63,2.03-8.6-1.17-11.8
							C100.6,75.14,94.09,75.4,90.55,79.83z M102.56,90.32c-2.58,2.58-6.78,2.58-9.35,0c-2.58-2.58-2.58-6.77,0-9.35
							c2.58-2.58,6.77-2.58,9.35,0C105.14,83.55,105.14,87.75,102.56,90.32z"/>
					</g>
				</g>
			</g>
			<g>
				<g>
					<radialGradient id="SVGID_1_" cx="280.7947" cy="186.0251" r="14.3507" gradientUnits="userSpaceOnUse">
						<stop  offset="0" style="stop-color:#FFC8AF"/>
						<stop  offset="1" style="stop-color:#FFBB9C"/>
					</radialGradient>
					<path class="st10" d="M294.46,186.63c-0.12,1.26-1.84,14.4-15.36,14.4c-14.19,0-11.81-14.05-11.81-14.05l-0.02-0.09
						c1.38-0.28,2.87-0.39,4.45-0.21v-6.65l16.11-9.01h0.59v15.52C288.41,186.54,290.96,186.24,294.46,186.63z"/>
					<g>
						<g id="XMLID_43_">
							<g>
								
									<radialGradient id="SVGID_2_" cx="283.8805" cy="160.9704" r="22.6244" gradientTransform="matrix(0.9776 -0.2105 0.2105 0.9776 -38.9136 62.4417)" gradientUnits="userSpaceOnUse">
									<stop  offset="0" style="stop-color:#FFC8AF"/>
									<stop  offset="1" style="stop-color:#FFBB9C"/>
								</radialGradient>
								<path class="st11" d="M286.63,141.32c2.28,2.32,4.01,5.31,4.84,8.98c1.55,6.82,0.09,14.04-1.89,20.62
									c-0.34,1.12-0.72,2.26-1.42,3.21c-0.5,0.68-1.13,1.23-1.77,1.78c-2.87,2.49-5.73,4.99-8.59,7.49
									c-1.94,1.7-13.87,3.11-16.14,1.48c-8.77-6.27-10.46-24.45-8.71-33.74C255.88,135.73,275.69,130.22,286.63,141.32z"/>
							</g>
						</g>
						<path class="st12" d="M281.71,161.05c0.12-1.48,1.64-3.11,3.17-2.15c1.59,1,1.21,3.63,0.56,5.08
							c-0.52,1.14-2.24,2.38-3.41,1.32c-0.98-0.89,0.54-1.93,0.59-2.74c0.04-0.73-1.41-1.25-0.82-2.03"/>
						<path class="st12" d="M281.99,167.91c1.6,0.48,4.31-0.74,4.99-2.97c0.69-2.23,0.61-4.77,0.61-4.77s0.81,2.02,0.39,5.26
							s-1.55,6.33-4.1,6.37C281.34,171.85,281.99,167.91,281.99,167.91z"/>
						<path class="st13" d="M280.03,165.6c-0.05,0.03-0.11,0.04-0.18,0.05c-0.99,0.14-1.39-1.06-1.53-1.81
							c-0.34-1.75-0.29-3.52-0.35-5.29c-0.01-0.44,0.02-1-0.16-1.41c-0.56-1.27-2.04-2.1-2.49-3.42c-0.53-1.53,0.96-3.06,0.37-4.73
							c-0.9-2.57-4.2-3.16-6.58-3.13c-3.58,0.04-7.06,0.71-10.59,1.25c-3.72,0.58-8.49,1.13-11.77-1.23
							c-3.96-2.84-5.61-10.24-2.66-14.29c1.61-2.21,4.66-3.38,7.33-3.45c2.83-0.06,5.23,1.62,7.83,2.47
							c2.07,0.68,4.07-1.3,6.01-1.69c2.43-0.49,3.47,2.17,5.62,2.24c2.09,0.07,4.14-1.56,6.18-1.93c4.05-0.74,3.81,3.33,6.53,4.72
							c1.69,0.86,3.87,0.34,5.58,1.22c1.3,0.67,1.48,1.84,1.76,3.17c0.24,1.15,0.26,2.47,0.64,3.57c0.34,0.98,1.16,1.6,1.81,2.37
							c0.7,0.84,1.15,1.82,1.51,2.87c0.79,2.33,0.96,4.84,0.75,7.28c-0.36,4.09-1.68,8.12-3.05,11.98c-0.89,2.5-1.22,5.11-2.58,7.47
							c-0.37,0.64-1.99,2.49-2.6,1.11c-0.13-0.3-0.11-0.63-0.09-0.96c0.18-2.58,2.58-19.19-3.71-17.2c-1.32,0.42-2.21,1.52-2.7,2.77
							c-0.59,1.5-0.63,3.01-0.56,4.6c0.01,0.23,0.02,0.45,0.01,0.68C280.35,165.18,280.28,165.47,280.03,165.6z"/>
					</g>
				</g>
				<path class="st12" d="M271.72,185.16c7.16-1.15,11.88-6.8,11.88-6.8s-1.93,9.53-12.31,10.03L271.72,185.16z"/>
				<g>
					<path class="st14" d="M283.46,315.03h10.24v98.47c0,0.9-0.73,1.63-1.63,1.63h-6.99c-0.9,0-1.63-0.73-1.63-1.63V315.03z"/>
					<path class="st15" d="M260.42,316.43h56.34v2.23c0,3.49-2.83,6.31-6.31,6.31h-43.71c-3.49,0-6.31-2.83-6.31-6.31V316.43z"/>
					<g>
						<path class="st14" d="M283.46,403.47h10.24v22.96c0,0.9-0.73,1.63-1.63,1.63h-6.99c-0.9,0-1.63-0.73-1.63-1.63V403.47z"/>
						<path class="st14" d="M235.43,422.05c0,3.31,2.68,6,6,6c3.31,0,6-2.68,6-6c0-3.31-2.68-6-6-6
							C238.11,416.06,235.43,418.74,235.43,422.05z"/>
						<path class="st14" d="M329.75,422.05c0,3.31,2.68,6,6,6c3.31,0,6-2.68,6-6c0-3.31-2.68-6-6-6
							C332.44,416.06,329.75,418.74,329.75,422.05z"/>
						
							<rect x="278.28" y="395.83" transform="matrix(-1 -1.224647e-16 1.224647e-16 -1 577.1713 809.6743)" class="st15" width="20.61" height="18.01"/>
						<path class="st6" d="M235.43,418.08h106.32v-2.72c0-3.18-2.58-5.75-5.75-5.75h-94.82c-3.18,0-5.75,2.58-5.75,5.75V418.08z"/>
					</g>
					<rect x="285.03" y="327" class="st15" width="3.55" height="67.22"/>
				</g>
				<path class="st6" d="M328.83,243.79c-2.46-0.08-4.46,1.96-4.32,4.41c0.7,12.2-1.88,41.97-13.25,52.12
					c-13.9,12.42-53.28,10.73-53.28,10.73s-6.5,7.98,6.5,9.76c13.01,1.77,49.67,0.59,58.54-7.69c8.59-8.01,13.68-29.01,9.84-65.55
					C332.65,245.47,330.94,243.85,328.83,243.79L328.83,243.79z"/>
				<g id="XMLID_42_">
					<g>
						<radialGradient id="SVGID_3_" cx="250.1991" cy="402.7142" r="9.0219" gradientUnits="userSpaceOnUse">
							<stop  offset="0" style="stop-color:#FFC8AF"/>
							<stop  offset="1" style="stop-color:#FFBB9C"/>
						</radialGradient>
						<polygon class="st16" points="255.04,394.23 259.72,404.9 245.37,411.2 240.67,400.49 						"/>
						<path class="st17" d="M322.72,275.54c-0.89,1.77-64.65,0.04-70.67,0.59c0,0-39.03,18.63-44.63,36.06
							c-0.57,1.76-0.73,4.08-0.55,6.85c1.56,24.55,29.52,83.34,29.52,83.34l4.29-1.88l14.37-6.26l2.04-0.89
							c0,0-22.17-66.08-17.74-69.62c4.43-3.55,54.69-12.42,72.13-17.14C328.92,301.84,322.72,275.54,322.72,275.54z"/>
						<radialGradient id="SVGID_4_" cx="193.0605" cy="404.977" r="8.2176" gradientUnits="userSpaceOnUse">
							<stop  offset="0" style="stop-color:#FFC8AF"/>
							<stop  offset="1" style="stop-color:#FFBB9C"/>
						</radialGradient>
						<polygon class="st18" points="200.33,396.97 201.45,413.02 185.79,413.02 184.67,396.94 						"/>
						<path class="st13" d="M251.72,275.57l-0.57,0.25c0,0-65.33,9.17-75.98,27.5c-6.92,11.92,6.47,99.02,6.47,99.02l23.11,0.05
							c0,0-3.46-72.56-2.3-76.6c1.29-4.61,3.51-6.28,4.4-6.76c-0.18-2.77-0.02-5.09,0.55-6.85c5.61-17.44,44.63-36.06,44.63-36.06
							C251.92,276.03,251.81,275.84,251.72,275.57z"/>
						<path class="st7" d="M314.83,215.21l-4.38,0.6c0,0-1.06,11.81-3.67,23.63l-54.58,20.72l-0.75,3.96
							c-0.23-0.02-0.46-0.04-0.67-0.05c0.02,0.82,0.02,1.61,0.05,2.36c0.12,4.56,0.43,7.84,0.9,9.15c0.09,0.27,0.2,0.46,0.32,0.55
							c1.48,1.21,20.79-1.13,41.66,6.53c18.1,6.65,28.25,13.91,28.71,12.93C328.11,283.75,317.75,237.34,314.83,215.21z"/>
						<path class="st19" d="M309.13,242.28c-1.45,6.99-5.22,20.9-12.59,22.76c-9.63,2.45-28.26,2.32-45.71,1.38
							c-0.04-0.75-0.04-1.54-0.05-2.36c0.21,0.02,0.44,0.04,0.67,0.05l0.75-3.96l54.58-20.72c2.61-11.81,3.67-23.63,3.67-23.63
							s0,0.07,0.02,0.2C310.57,217.83,311.32,231.95,309.13,242.28z"/>
						<path class="st19" d="M254.42,197.77c-0.98,1.77-2.38,20.75-3.14,39.59l-11.16-10.41
							C244.86,217.78,254.42,197.77,254.42,197.77z"/>
						<path class="st12" d="M247.73,251.13c-9.42,1.63-18.08,3.03-18.08,3.03l-0.02,0.46c-10.48-8.37-26.43-32.09-26.43-32.09
							s4.77-5.73,5.96-7.24c0.18-0.23,26.18,17.67,27.51,17.51c0.34-0.04,1.67-2.38,3.44-5.85l11.16,10.41
							c-0.18,4.49-0.32,8.96-0.41,13.2C249.83,250.75,248.78,250.93,247.73,251.13z"/>
						<radialGradient id="SVGID_5_" cx="243.0912" cy="250.7743" r="46.0139" gradientUnits="userSpaceOnUse">
							<stop  offset="0" style="stop-color:#FFC8AF"/>
							<stop  offset="1" style="stop-color:#FFBB9C"/>
						</radialGradient>
						<path class="st20" d="M229.66,254.16l-0.23,7.77h-28.38c0,0,2.82-11.09,10.5-11.09s10.64,4.06,10.64,4.06L229.66,254.16z"/>
						<path class="st12" d="M208.96,215.12l0.21,0.18c-1.19,1.51-5.96,7.24-5.96,7.24l-2.96-2.09c0,0-3.26,1.99-7.06-0.09
							c-3.96-2.15-1.51-7.27-1.3-7.88c-0.77,0.22-5.51,4.05-6.25,3.64c-0.75-0.41-1.29-1.76,4.01-6.99
							c5.29-5.23,12.49,1.49,12.7,1.49L208.96,215.12z"/>
						<path class="st12" d="M193.8,219.46c0,0-1.14,2.14,0.89,3.07c2.03,0.93,5.99,1.6,7.69,1.44s3.05-2.54,3.05-2.54l-5.15-4.83
							h-4.11L193.8,219.46z"/>
						<path class="st21" d="M193.5,220.51c0.3-1.05,3.23-0.49,5.04-0.45c1.33,0.03,2.06-0.32,2.48-1.33
							c0.41-1.02-1.52-2.64-1.91-2.13c-0.38,0.51,0.7,1.22,0.73,1.9c0.03,0.67-1.91,0.9-3.4,0.9s-4.07,0.39-4.07,0.39L193.5,220.51z
							"/>
					</g>
				</g>
				<radialGradient id="SVGID_6_" cx="243.0912" cy="250.7743" r="46.0137" gradientUnits="userSpaceOnUse">
					<stop  offset="0" style="stop-color:#FFC8AF"/>
					<stop  offset="1" style="stop-color:#FFBB9C"/>
				</radialGradient>
				<path class="st22" d="M304,249.51l-27.8-9.85c-2.02,3.78-4.19,6.62-6.33,7.18c-3.25,0.85-11.09,2.32-19,3.71
					c-1.05,0.2-2.09,0.37-3.14,0.57c-9.42,1.63-18.08,3.03-18.08,3.03l-0.02,0.46v0.3l-0.21,7.01v1.78c0,0,9.44-0.48,21.34,0.35
					c16.66,1.19,38.14,1.9,45.25-1.45c3.33-1.58,6-6.76,8.09-13.14C304.07,249.48,304.04,249.49,304,249.51z"/>
				<polygon class="st12" points="276.2,239.67 304,249.51 302.74,253.23 275.23,241.43 				"/>
				<path class="st7" d="M276.2,239.67c-2.02,3.78-4.19,6.62-6.33,7.18c-3.25,0.85-11.09,2.32-19,3.71
					c0.09-4.24,0.23-8.71,0.41-13.2c0.76-18.84,2.16-37.82,3.14-39.59c1.6-2.96,5.96-9.4,12.84-10.87l0.02,0.09
					c0,0-2.38,14.05,11.81,14.05c13.52,0,15.24-13.14,15.36-14.4c6.95,0.78,17.61,4.26,19.09,18.24c0.3,2.77,0.73,6.31,1.28,10.34
					l-4.38,0.6c0,0-1.77,19.69-6.33,33.65c-0.04,0.02-0.07,0.04-0.11,0.05L276.2,239.67z"/>
				<polygon class="st23" points="275.92,237.11 287.02,210.24 278.84,238.19 				"/>
				<path class="st7" d="M294.46,186.63h-6.05c0,0-8.61,9.45-14.14,9.45s-2.55-9.4-2.55-9.4h-2.7c-7.76,0-14.28,5.82-15.16,13.53
					c-0.1,0.88-0.19,1.72-0.27,2.48c-0.59,5.72,22.57,9.88,22.57,9.88l11.93-0.67l7.24-14.13l1.44-5.79L294.46,186.63z"/>
				<g>
					<g>
						<g id="XMLID_39_">
							<g>
								<path class="st9" d="M221.47,423.49c0.54,2.89,2.54,4.94,5.43,4.41l38.53-7.19c0.97-0.18,1.62-1.12,1.44-2.09l-0.64-3.42
									c0,0-40.52,7.09-44.78,8.27L221.47,423.49z"/>
								<path class="st13" d="M232.93,413.79c0.4-0.35,0.79-0.69,1.19-1.04c0.77-0.69,1.53-1.36,2.27-2.02
									c0.39-0.35,0.77-0.69,1.13-1.02c0.7-0.63,1.37-1.22,1.96-1.75c0.43-0.39,0.83-0.75,1.18-1.07c0.66-0.59,1.2-1.07,1.57-1.41
									c0.33-0.29,0.81-0.31,1.15-0.02c1.58,1.33,6.7,4.38,15.97-1.36c0.44-0.27,1.02-0.13,1.26,0.33l5.61,10.78
									c0,0-40.52,7.09-44.78,8.27C222.85,422.6,228.02,418.12,232.93,413.79z"/>
							</g>
						</g>
					</g>
				</g>
				<g>
					<g>
						<g id="XMLID_44_">
							<g>
								<path class="st9" d="M160.79,423.12c0.07,2.94,1.72,5.29,4.66,5.21l39.18-0.96c0.99-0.02,1.78-0.85,1.75-1.84l-0.08-3.48
									c0,0-41.13,0.54-45.52,1.03L160.79,423.12z"/>
								<path class="st13" d="M173.65,415.36c0.45-0.28,0.89-0.56,1.34-0.84c0.87-0.56,1.73-1.1,2.56-1.63
									c0.44-0.28,0.87-0.56,1.28-0.82c0.8-0.51,1.54-0.99,2.21-1.42c0.48-0.31,0.94-0.61,1.34-0.87c0.74-0.48,1.35-0.87,1.78-1.14
									c0.37-0.24,0.85-0.17,1.14,0.16c1.35,1.57,5.92,5.39,15.99,1.2c0.48-0.2,1.03,0.03,1.19,0.53l3.82,11.53
									c0,0-41.13,0.54-45.52,1.03C162.29,422.45,168.11,418.86,173.65,415.36z"/>
							</g>
						</g>
					</g>
				</g>
				<g>
					<polygon class="st24" points="132.92,263.71 111.99,207.9 171.56,207.9 192.49,263.71 					"/>
					<polygon class="st25" points="196.17,263.71 192.49,263.71 171.56,207.9 174.91,208.05 194.26,258.56 					"/>
					<polyline class="st26" points="115.2,257.68 115.5,257.68 190.2,257.68 					"/>
					<g>
						<path class="st25" d="M195.01,263.71h39.36l-0.11-3.52c0,0-39.4,0-40.06,0"/>
					</g>
				</g>
				<g>
					<g>
						<rect x="353.23" y="274.35" class="st25" width="9.48" height="155.7"/>
					</g>
					<g>
						<rect x="301.79" y="274.35" class="st24" width="9.48" height="155.7"/>
					</g>
					<g>
						<rect x="136.99" y="274.35" class="st25" width="9.48" height="155.7"/>
					</g>
					<g>
						<rect x="85.54" y="274.35" class="st24" width="9.48" height="155.7"/>
					</g>
					<path class="st27" d="M372.65,274.94H76.01c-2.29,0-4.15-1.86-4.15-4.15v-2.94c0-2.29,1.86-4.15,4.15-4.15h296.64
						c2.29,0,4.15,1.86,4.15,4.15v2.94C376.8,273.08,374.94,274.94,372.65,274.94z"/>
				</g>
				<polygon class="st25" points="121.94,213.77 122.96,216.48 134.83,216.48 133.81,213.77 				"/>
				<polygon class="st21" points="240.12,226.95 239.27,228.59 251.28,241.01 251.28,237.36 				"/>
			</g>
		</g>
		<g>
			<rect x="5.7" y="428.05" class="st28" width="479.54" height="10.95"/>
			<g>
				<g>
					
						<linearGradient id="SVGID_7_" gradientUnits="userSpaceOnUse" x1="498.325" y1="107.1251" x2="454.6474" y2="162.1856" gradientTransform="matrix(0.7834 -0.6215 0.6215 0.7834 -58.0954 529.938)">
						<stop  offset="0" style="stop-color:#606BF1"/>
						<stop  offset="1" style="stop-color:#58479F"/>
					</linearGradient>
					<path class="st29" d="M409.21,346.83c-1.9,9.24-1.33,24.99-13.56,27.48c-3.29,0.67-6.47-1.61-8.39-4.23
						c-2.5-3.42-3.1-10.67-3.06-14.81c0.03-3.28,1.15-6.95,1.52-10.26c0.39-3.58,0.71-7.17,1.12-10.74
						c1.5-12.89,8.24-23.69,19.63-30.12c0.88,4.23,2.89,7.81,4.66,11.87c0.81,1.85,1.54,3.8,2.06,5.75c0.93,3.44-0.2,6.91-1.03,10.2
						C410.92,336.84,410.23,341.91,409.21,346.83z"/>
					<path class="st30" d="M393.58,374.62c0.09-0.78,0.18-1.55,0.28-2.33c1.46,0,2.98-0.83,4.21-1.47c2.13-1.1,3.85-2.68,5.52-4.37
						c0.09-0.09-0.06-0.24-0.16-0.16c-1.67,1.4-3.39,2.76-5.38,3.68c-1.11,0.52-2.72,1.36-4.09,1.52c0.13-0.93,0.27-1.85,0.42-2.77
						c1.52-0.19,2.91-1.19,4.2-1.95c2.19-1.3,4.07-2.98,6.02-4.6c0.02-0.02,0-0.05-0.03-0.04c-2.99,2.17-6.31,5.26-10.09,5.93
						c0.2-1.15,0.41-2.31,0.65-3.45c0.01-0.06,0.03-0.12,0.04-0.18c4.37-1.11,7.33-4.53,10.68-7.31c0.05-0.04,0-0.14-0.06-0.09
						c-3.3,2.56-6.39,5.48-10.47,6.72c0.35-1.64,0.72-3.27,1.09-4.9c3.96-1.46,7.11-3.78,9.88-7c0.05-0.05-0.03-0.13-0.08-0.08
						c-2.86,2.98-6.01,4.69-9.64,6.38c0.37-1.61,0.73-3.23,1.07-4.85c1.71-0.84,3.51-1.35,5.09-2.46c1.56-1.09,2.96-2.39,3.96-4.02
						c0.05-0.09-0.07-0.17-0.13-0.08c-2.21,3.18-5.55,4.17-8.77,5.84c0.31-1.51,0.61-3.02,0.87-4.54c3.59-1.98,7.5-3.81,9.53-7.6
						c0.02-0.04-0.03-0.07-0.06-0.04c-2.16,3.48-5.93,4.98-9.35,6.88c0.04-0.27,0.09-0.54,0.14-0.81c0.22-1.41,0.43-2.82,0.63-4.24
						c2.07-0.83,4.03-1.99,5.89-3.2c1.32-0.86,2.73-1.71,3.59-3.06c0.05-0.08-0.07-0.17-0.13-0.09c-1.93,2.76-6.15,4.36-9.27,5.74
						c0.2-1.43,0.4-2.85,0.61-4.28c3.46-2.09,7.53-3.25,9.66-7.02c0.06-0.11-0.1-0.21-0.17-0.11c-2.2,3.45-6.09,4.51-9.39,6.46
						c0.13-0.88,0.26-1.77,0.39-2.65c3.73-1.37,8.08-4.5,10.05-7.88c0.11-0.19-0.16-0.36-0.28-0.18c-2.01,2.96-6.05,6.18-9.66,7.36
						c0.22-1.43,0.45-2.86,0.71-4.29c0.03-0.04,0.04-0.08,0.06-0.13c1.68-0.49,3.33-1.68,4.78-2.57c1.75-1.08,3.41-2.33,4.5-4.1
						c0.12-0.2-0.2-0.38-0.31-0.18c-1.66,2.96-5.6,4.95-8.86,6.08c0.1-0.52,0.19-1.04,0.29-1.56c0.15-0.78,0.31-1.55,0.47-2.33
						c1.33-0.92,3.03-1.36,4.37-2.34c1.17-0.85,2.18-1.87,3.18-2.9c0.1-0.1-0.05-0.26-0.15-0.16c-1.35,1.27-2.74,2.49-4.39,3.37
						c-0.92,0.49-1.97,0.77-2.86,1.31c0.26-1.27,0.52-2.54,0.77-3.81c0.02,0,0.03-0.01,0.05-0.01c0.02,0,0.03,0.01,0.05,0.01
						c0.09,0.02,0.17-0.01,0.22-0.07c1.81-0.46,3.2-2.02,4.42-3.35c0.03-0.03-0.02-0.08-0.05-0.05c-1.28,1.18-2.73,2.49-4.45,3
						c-0.01,0-0.01-0.01-0.02-0.01c-0.04-0.01-0.09-0.01-0.13-0.02c0.2-1.03,0.39-2.07,0.56-3.11c0.13-0.02,0.25-0.14,0.21-0.27
						c0.96-0.65,1.84-1.47,2.66-2.27c0.06-0.06-0.03-0.15-0.09-0.1c-0.85,0.74-1.69,1.34-2.65,1.87c0.34-2.14,0.6-4.3,0.72-6.48
						c0.01-0.2-0.29-0.2-0.31-0.01c-0.19,2.1-0.49,4.17-0.86,6.24c-1-1.31-2.12-2.67-2.73-4.17c-0.03-0.08-0.16-0.05-0.13,0.04
						c0.3,0.93,0.82,1.75,1.33,2.58c0.46,0.74,0.82,1.61,1.41,2.27c-0.2,1.11-0.42,2.22-0.65,3.32c-1.22-0.2-2.33-0.43-3.34-1.31
						c-1.23-1.08-1.93-2.55-2.05-4.17c-0.01-0.2-0.33-0.2-0.31,0c0.14,1.51,0.74,2.94,1.78,4.06c1.09,1.19,2.37,1.56,3.83,1.87
						c-0.27,1.28-0.54,2.55-0.82,3.82c-1.11-0.66-2.13-1.53-3.13-2.32c-1.61-1.28-2.56-2.82-3.95-4.27
						c-0.14-0.14-0.37,0.06-0.23,0.21c1.31,1.39,2.19,2.9,3.68,4.15c1.07,0.9,2.25,2.03,3.53,2.69c-0.01,0.07-0.03,0.13-0.04,0.2
						c-0.01,0.01-0.03,0.02-0.04,0.04c-0.1,0.1-0.09,0.21-0.03,0.28c-0.27,1.22-0.54,2.44-0.79,3.66c-0.02,0.08-0.03,0.15-0.05,0.23
						c-2.84-1.3-7.09-3.56-7.47-6.86c-0.04-0.31-0.5-0.23-0.43,0.09c0.84,3.73,4.95,5.39,7.77,7.43c-0.28,1.38-0.53,2.77-0.77,4.16
						c-1.84-0.63-3.58-1.41-5.13-2.64c-1.4-1.12-3.39-2.46-4.02-4.19c-0.02-0.05-0.1-0.02-0.08,0.03c0.58,1.72,2.37,2.9,3.66,4.07
						c1.64,1.49,3.33,2.75,5.44,3.35c-0.02,0.06-0.02,0.12-0.01,0.19c-0.14,0.88-0.28,1.76-0.42,2.65
						c-3.45-0.27-8.29-2.89-10.05-5.5c-0.01-0.01-0.02,0-0.02,0.01c1.2,1.99,3.02,3.16,5.08,4.17c1.53,0.76,3.19,1.65,4.92,1.78
						c-0.25,1.63-0.49,3.27-0.73,4.91c-1.5-0.56-3.09-0.83-4.57-1.42c-2.2-0.88-3.89-2.47-5.19-4.42c-0.08-0.12-0.27-0.02-0.2,0.1
						c2.39,3.8,5.83,4.92,9.86,6.34c-0.2,1.34-0.41,2.68-0.63,4.02c-3.3-0.63-7.56-2.65-9.23-5.51c-0.12-0.21-0.46-0.04-0.34,0.18
						c1.05,1.84,2.87,3,4.72,3.93c1.33,0.67,3.17,1.79,4.76,1.91c-0.01,0.04-0.01,0.09-0.02,0.13c-0.33,1.93-0.71,3.84-1.12,5.75
						c-3.68-0.93-6.07-3.66-8.74-6.21c-0.19-0.18-0.48,0.09-0.29,0.28c2.73,2.68,5.12,5.5,8.92,6.49c-0.34,1.55-0.7,3.1-1.08,4.65
						c-3.14-0.88-6.24-3.1-8.27-5.66c-0.14-0.18-0.4,0.06-0.26,0.24c2.11,2.78,5.15,4.87,8.39,6.02c-0.41,1.66-0.83,3.32-1.25,4.97
						c-3.22-0.49-5.71-2.51-7.69-5.06c-0.05-0.06-0.15,0.02-0.11,0.08c1.76,2.45,4.43,5.29,7.64,5.59
						c-0.14,0.53-0.27,1.06-0.41,1.58c-0.08,0.32-0.17,0.64-0.26,0.97c-2.43-0.72-4.69-1.59-6.69-3.23
						c-0.06-0.05-0.12,0.04-0.07,0.09c1.91,1.72,4.19,2.87,6.63,3.62c-0.27,0.99-0.56,2.02-0.84,3.06c-0.6-0.28-1.19-0.59-1.85-0.79
						c-1.21-0.36-1.99-1.13-3.04-1.76c-0.1-0.06-0.21,0.08-0.11,0.14c0.92,0.6,1.57,1.38,2.63,1.78c0.78,0.29,1.52,0.67,2.27,1
						c-1.11,4.13-2.09,8.52-1.56,12.48c0.12,0.88,1.59,1.11,1.82,0.18C393.29,380.63,393.25,377.56,393.58,374.62z"/>
				</g>
				<g>
					
						<linearGradient id="SVGID_8_" gradientUnits="userSpaceOnUse" x1="591.855" y1="-8.8087" x2="548.1786" y2="46.2503" gradientTransform="matrix(0.4479 -0.8941 0.8941 0.4479 85.9095 842.98)">
						<stop  offset="0" style="stop-color:#606BF1"/>
						<stop  offset="1" style="stop-color:#58479F"/>
					</linearGradient>
					<path class="st31" d="M370.51,344.18c2.17,9.18,9.34,23.21-0.69,30.64c-2.7,2-6.55,1.27-9.39-0.29
						c-3.72-2.05-7.32-8.36-9.03-12.14c-1.35-2.99-1.89-6.79-2.96-9.94c-1.16-3.41-2.38-6.79-3.51-10.21
						c-4.08-12.32-2.53-24.95,5.08-35.59c2.58,3.46,5.92,5.86,9.24,8.8c1.51,1.34,3,2.8,4.29,4.34c2.29,2.72,2.74,6.35,3.37,9.68
						C367.85,334.4,369.36,339.29,370.51,344.18z"/>
					<path class="st30" d="M368.08,375.98c-0.25-0.74-0.49-1.48-0.72-2.23c1.32-0.62,2.35-2.01,3.2-3.11
						c1.46-1.9,2.36-4.06,3.16-6.3c0.04-0.12-0.16-0.19-0.21-0.07c-0.92,1.97-1.91,3.93-3.32,5.61c-0.78,0.93-1.89,2.38-3.06,3.1
						c-0.27-0.89-0.53-1.79-0.79-2.69c1.3-0.81,2.14-2.3,2.99-3.54c1.44-2.1,2.43-4.42,3.52-6.71c0.01-0.03-0.03-0.05-0.04-0.02
						c-1.79,3.23-3.5,7.43-6.64,9.64c-0.31-1.13-0.6-2.26-0.86-3.4c-0.01-0.06-0.03-0.12-0.04-0.18c3.5-2.85,4.73-7.2,6.59-11.13
						c0.03-0.06-0.06-0.12-0.09-0.06c-1.91,3.71-3.48,7.67-6.65,10.51c-0.37-1.63-0.73-3.27-1.08-4.9c2.97-2.99,4.86-6.43,6-10.52
						c0.02-0.07-0.08-0.11-0.11-0.04c-1.34,3.91-3.47,6.79-6.05,9.86c-0.35-1.62-0.7-3.23-1.07-4.85c1.2-1.49,2.61-2.71,3.58-4.38
						c0.95-1.65,1.67-3.42,1.9-5.31c0.01-0.1-0.14-0.12-0.15-0.02c-0.66,3.82-3.27,6.12-5.49,9c-0.35-1.5-0.72-2.99-1.13-4.48
						c2.42-3.31,5.19-6.62,5.43-10.92c0-0.04-0.06-0.05-0.07-0.01c-0.49,4.07-3.27,7.02-5.57,10.18c-0.07-0.26-0.14-0.53-0.22-0.79
						c-0.4-1.37-0.81-2.74-1.22-4.1c1.52-1.62,2.81-3.51,3.99-5.39c0.83-1.33,1.75-2.7,1.96-4.29c0.01-0.1-0.14-0.13-0.15-0.03
						c-0.58,3.32-3.73,6.54-5.98,9.11c-0.42-1.38-0.84-2.76-1.26-4.14c2.25-3.36,5.45-6.12,5.79-10.44c0.01-0.13-0.18-0.15-0.2-0.02
						c-0.54,4.05-3.61,6.65-5.79,9.82c-0.26-0.86-0.51-1.71-0.77-2.57c2.81-2.82,5.42-7.49,5.79-11.38c0.02-0.21-0.3-0.26-0.33-0.04
						c-0.57,3.53-2.87,8.16-5.65,10.74c-0.4-1.39-0.8-2.78-1.17-4.18c0.01-0.05,0.01-0.09,0-0.14c1.31-1.16,2.32-2.93,3.25-4.35
						c1.13-1.71,2.11-3.55,2.35-5.61c0.03-0.23-0.34-0.26-0.36-0.03c-0.25,3.38-2.99,6.85-5.46,9.25c-0.13-0.51-0.27-1.02-0.39-1.54
						c-0.19-0.77-0.37-1.54-0.56-2.31c0.82-1.4,2.17-2.51,2.97-3.96c0.7-1.26,1.19-2.61,1.66-3.97c0.05-0.14-0.15-0.22-0.21-0.08
						c-0.69,1.72-1.44,3.42-2.56,4.91c-0.63,0.84-1.46,1.53-2.04,2.4c-0.3-1.26-0.6-2.52-0.91-3.78c0.01-0.01,0.03-0.02,0.04-0.03
						c0.02,0,0.03-0.01,0.05-0.01c0.09-0.02,0.14-0.08,0.17-0.15c1.45-1.18,2.05-3.18,2.59-4.91c0.01-0.04-0.05-0.06-0.06-0.02
						c-0.66,1.61-1.43,3.41-2.77,4.6c-0.01,0-0.01,0-0.02,0c-0.04,0.01-0.08,0.02-0.13,0.04c-0.26-1.02-0.52-2.04-0.8-3.05
						c0.11-0.08,0.17-0.23,0.08-0.33c0.6-0.99,1.05-2.11,1.45-3.18c0.03-0.08-0.09-0.13-0.12-0.05c-0.46,1.03-0.97,1.93-1.62,2.82
						c-0.6-2.09-1.27-4.15-2.08-6.18c-0.08-0.19-0.35-0.06-0.29,0.13c0.71,1.98,1.31,3.99,1.86,6.02c-1.46-0.77-3.04-1.52-4.23-2.63
						c-0.06-0.06-0.16,0.02-0.1,0.09c0.67,0.72,1.48,1.24,2.29,1.78c0.73,0.48,1.42,1.11,2.23,1.46c0.29,1.09,0.56,2.19,0.81,3.28
						c-1.19,0.34-2.3,0.6-3.58,0.22c-1.57-0.46-2.82-1.49-3.62-2.92c-0.1-0.17-0.38-0.04-0.28,0.13c0.76,1.31,1.91,2.35,3.32,2.93
						c1.49,0.62,2.81,0.42,4.26,0.08c0.3,1.27,0.58,2.54,0.87,3.81c-1.28-0.13-2.58-0.49-3.82-0.79c-2-0.48-3.51-1.48-5.38-2.2
						c-0.19-0.07-0.31,0.21-0.12,0.29c1.77,0.71,3.21,1.7,5.09,2.2c1.35,0.36,2.9,0.89,4.34,0.95c0.01,0.07,0.03,0.13,0.04,0.2
						c-0.01,0.02-0.02,0.03-0.02,0.05c-0.05,0.13,0.01,0.22,0.09,0.27c0.27,1.22,0.54,2.44,0.83,3.66c0.02,0.08,0.04,0.15,0.06,0.23
						c-3.13,0.02-7.94-0.24-9.67-3.07c-0.17-0.27-0.55,0.01-0.35,0.27c2.34,3.03,6.76,2.8,10.18,3.45c0.33,1.37,0.68,2.74,1.06,4.09
						c-1.93,0.2-3.85,0.23-5.76-0.23c-1.74-0.42-4.11-0.8-5.41-2.1c-0.04-0.04-0.1,0.03-0.06,0.07c1.26,1.31,3.37,1.63,5.04,2.15
						c2.12,0.65,4.18,1.09,6.34,0.74c0.01,0.06,0.03,0.12,0.07,0.17c0.24,0.86,0.49,1.72,0.74,2.58c-3.24,1.22-8.73,0.88-11.43-0.74
						c-0.01-0.01-0.02,0.01-0.01,0.02c1.93,1.3,4.07,1.59,6.36,1.64c1.71,0.04,3.59,0.15,5.21-0.47c0.46,1.59,0.94,3.17,1.41,4.76
						c-1.59,0.13-3.15,0.55-4.74,0.64c-2.37,0.13-4.57-0.6-6.57-1.81c-0.12-0.07-0.26,0.1-0.13,0.18c3.77,2.44,7.36,2,11.62,1.59
						c0.38,1.3,0.76,2.6,1.12,3.91c-3.26,0.82-7.97,0.79-10.7-1.1c-0.2-0.14-0.43,0.16-0.23,0.3c1.73,1.22,3.87,1.5,5.94,1.57
						c1.49,0.05,3.63,0.29,5.12-0.28c0.01,0.04,0.02,0.09,0.04,0.13c0.52,1.88,0.98,3.78,1.41,5.69c-3.73,0.72-7.04-0.75-10.55-1.94
						c-0.24-0.08-0.39,0.29-0.15,0.37c3.61,1.28,6.97,2.83,10.82,2.13c0.35,1.55,0.67,3.11,0.99,4.67
						c-3.21,0.53-6.97-0.18-9.89-1.64c-0.21-0.1-0.33,0.23-0.13,0.33c3.08,1.63,6.73,2.24,10.14,1.91c0.33,1.68,0.65,3.36,0.96,5.04
						c-3.13,0.92-6.23,0.13-9.11-1.34c-0.07-0.03-0.13,0.08-0.06,0.12c2.63,1.48,6.25,2.92,9.29,1.84c0.1,0.54,0.2,1.07,0.3,1.61
						c0.06,0.32,0.12,0.65,0.18,0.99c-2.51,0.38-4.92,0.54-7.43-0.1c-0.07-0.02-0.09,0.09-0.02,0.11c2.45,0.75,5.01,0.84,7.54,0.49
						c0.17,1.02,0.35,2.06,0.53,3.12c-0.67,0-1.32-0.03-2.01,0.07c-1.25,0.18-2.28-0.18-3.5-0.31c-0.11-0.01-0.15,0.16-0.04,0.17
						c1.09,0.16,2.01,0.59,3.13,0.5c0.83-0.06,1.66-0.03,2.48-0.05c0.74,4.21,1.7,8.61,3.86,11.97c0.48,0.75,1.91,0.34,1.73-0.61
						C370.35,381.55,369.02,378.78,368.08,375.98z"/>
				</g>
				<g>
					
						<linearGradient id="SVGID_9_" gradientUnits="userSpaceOnUse" x1="556.6463" y1="27.8436" x2="502.5947" y2="95.9816" gradientTransform="matrix(0.6073 -0.7945 0.7945 0.6073 6.1873 714.3383)">
						<stop  offset="0" style="stop-color:#606BF1"/>
						<stop  offset="1" style="stop-color:#58479F"/>
					</linearGradient>
					<path class="st32" d="M391.71,337.07c0.52,11.67,5.98,30.38-7.94,37.08c-3.75,1.8-8.26,0.03-11.35-2.53
						c-4.04-3.35-6.96-11.86-8.16-16.84c-0.95-3.95-0.72-8.69-1.29-12.77c-0.62-4.41-1.32-8.81-1.91-13.23
						c-2.1-15.92,2.7-30.92,14.41-42.09c2.34,4.81,5.84,8.5,9.19,12.83c1.53,1.98,3,4.1,4.22,6.27c2.16,3.84,1.86,8.35,1.86,12.55
						C390.73,324.56,391.43,330.85,391.71,337.07z"/>
					<path class="st30" d="M381.38,375.15c-0.13-0.96-0.25-1.92-0.36-2.88c1.75-0.45,3.33-1.9,4.6-3.04
						c2.22-1.97,3.81-4.39,5.3-6.92c0.08-0.14-0.15-0.26-0.24-0.14c-1.57,2.18-3.24,4.34-5.34,6.05c-1.17,0.95-2.85,2.45-4.44,3.06
						c-0.13-1.15-0.24-2.3-0.33-3.45c1.77-0.68,3.14-2.31,4.45-3.61c2.23-2.22,3.98-4.81,5.83-7.34c0.02-0.03-0.02-0.06-0.04-0.03
						c-2.93,3.51-5.98,8.22-10.31,10.18c-0.11-1.45-0.21-2.89-0.26-4.34c0-0.08,0-0.15-0.01-0.23c4.91-2.65,7.42-7.66,10.59-12
						c0.05-0.07-0.05-0.16-0.1-0.09c-3.18,4.07-6.01,8.52-10.52,11.24c-0.07-2.07-0.13-4.14-0.18-6.21c4.3-2.95,7.39-6.69,9.73-11.4
						c0.04-0.08-0.07-0.15-0.12-0.07c-2.53,4.44-5.79,7.45-9.63,10.58c-0.05-2.05-0.1-4.09-0.18-6.14c1.8-1.53,3.8-2.69,5.36-4.49
						c1.54-1.78,2.82-3.77,3.53-6.02c0.04-0.12-0.14-0.18-0.18-0.06c-1.69,4.49-5.39,6.69-8.75,9.67c-0.08-1.9-0.19-3.81-0.33-5.71
						c3.71-3.46,7.84-6.85,9.13-12.01c0.01-0.05-0.06-0.08-0.08-0.03c-1.53,4.83-5.6,7.78-9.13,11.09
						c-0.03-0.34-0.05-0.68-0.08-1.02c-0.16-1.76-0.34-3.52-0.53-5.27c2.23-1.62,4.23-3.61,6.1-5.63c1.32-1.43,2.75-2.88,3.38-4.76
						c0.04-0.12-0.14-0.19-0.18-0.07c-1.48,3.9-6.06,7.09-9.38,9.69c-0.19-1.77-0.38-3.55-0.57-5.32c3.52-3.56,8.05-6.18,9.46-11.35
						c0.04-0.15-0.19-0.23-0.24-0.08c-1.6,4.8-5.94,7.25-9.31,10.6c-0.12-1.1-0.23-2.2-0.34-3.3c4.06-2.78,8.33-7.85,9.67-12.5
						c0.07-0.26-0.3-0.38-0.39-0.13c-1.51,4.16-5.38,9.25-9.36,11.75c-0.17-1.78-0.33-3.57-0.45-5.36c0.02-0.05,0.03-0.11,0.03-0.17
						c1.86-1.1,3.49-3.02,4.96-4.53c1.77-1.82,3.39-3.83,4.15-6.28c0.08-0.27-0.35-0.39-0.43-0.12c-1.09,4.06-5.22,7.63-8.78,9.98
						c-0.04-0.65-0.09-1.31-0.12-1.96c-0.05-0.98-0.1-1.96-0.14-2.94c1.32-1.51,3.22-2.55,4.53-4.13c1.14-1.37,2.05-2.9,2.94-4.44
						c0.09-0.15-0.14-0.3-0.23-0.15c-1.24,1.94-2.54,3.82-4.24,5.38c-0.95,0.87-2.13,1.53-3.03,2.44c-0.07-1.6-0.15-3.2-0.23-4.8
						c0.02-0.01,0.04-0.02,0.05-0.03c0.02,0,0.04,0,0.06,0c0.12-0.01,0.19-0.07,0.24-0.15c2.04-1.1,3.23-3.4,4.29-5.36
						c0.03-0.05-0.04-0.09-0.07-0.04c-1.18,1.81-2.52,3.82-4.43,4.95c-0.01,0-0.01,0-0.02,0c-0.05,0-0.11,0.01-0.16,0.01
						c-0.07-1.3-0.16-2.6-0.27-3.9c0.15-0.07,0.25-0.24,0.18-0.38c0.96-1.07,1.76-2.32,2.5-3.53c0.06-0.09-0.08-0.18-0.14-0.09
						c-0.8,1.14-1.63,2.12-2.62,3.05c-0.24-2.68-0.58-5.34-1.1-7.99c-0.05-0.25-0.41-0.16-0.38,0.09c0.41,2.57,0.67,5.16,0.87,7.74
						c-1.6-1.27-3.35-2.56-4.54-4.18c-0.06-0.08-0.2-0.01-0.14,0.08c0.64,1.03,1.51,1.85,2.37,2.69c0.77,0.75,1.48,1.68,2.37,2.29
						c0.09,1.39,0.17,2.79,0.23,4.18c-1.52,0.13-2.93,0.2-4.4-0.56c-1.8-0.92-3.09-2.47-3.73-4.38c-0.08-0.24-0.46-0.14-0.37,0.1
						c0.62,1.77,1.78,3.3,3.36,4.34c1.67,1.09,3.31,1.16,5.16,1.08c0.07,1.61,0.12,3.22,0.17,4.84c-1.53-0.46-3.02-1.19-4.46-1.84
						c-2.32-1.05-3.92-2.61-6.04-3.92c-0.21-0.13-0.42,0.19-0.21,0.32c1.99,1.27,3.51,2.81,5.67,3.86c1.56,0.75,3.32,1.75,5.05,2.16
						c0,0.09,0.01,0.17,0.01,0.26c-0.01,0.02-0.03,0.04-0.04,0.06c-0.09,0.14-0.04,0.27,0.05,0.35c0.05,1.55,0.1,3.09,0.16,4.64
						c0,0.1,0.01,0.19,0.01,0.29c-3.81-0.7-9.59-2.13-11.04-5.97c-0.14-0.37-0.67-0.12-0.49,0.24c2.14,4.23,7.57,4.97,11.58,6.55
						c0.08,1.74,0.2,3.48,0.34,5.22c-2.4-0.2-4.73-0.61-6.95-1.61c-2.02-0.91-4.81-1.93-6.09-3.81c-0.04-0.06-0.13,0.01-0.09,0.07
						c1.22,1.88,3.72,2.76,5.63,3.77c2.42,1.29,4.82,2.29,7.54,2.36c0,0.08,0.01,0.15,0.05,0.22c0.09,1.1,0.19,2.2,0.3,3.3
						c-4.22,0.73-10.82-0.95-13.73-3.55c-0.01-0.01-0.03,0.01-0.02,0.02c2.05,2.03,4.59,2.87,7.35,3.46
						c2.07,0.44,4.33,1.01,6.45,0.64c0.2,2.04,0.41,4.07,0.61,6.11c-1.97-0.22-3.95-0.06-5.91-0.32c-2.91-0.39-5.41-1.78-7.56-3.73
						c-0.13-0.12-0.33,0.06-0.21,0.18c4.02,3.84,8.49,4.13,13.75,4.62c0.16,1.67,0.32,3.34,0.46,5.02
						c-4.15,0.24-9.88-0.88-12.75-3.81c-0.21-0.22-0.56,0.1-0.35,0.31c1.82,1.88,4.35,2.72,6.86,3.29c1.81,0.4,4.35,1.19,6.29,0.85
						c0,0.05,0.01,0.11,0.01,0.16c0.19,2.41,0.32,4.83,0.4,7.24c-4.7,0.01-8.39-2.55-12.37-4.8c-0.28-0.16-0.54,0.26-0.27,0.42
						c4.09,2.39,7.82,5.05,12.67,5.09c0.06,1.97,0.1,3.94,0.12,5.91c-4.03-0.1-8.43-1.83-11.64-4.29c-0.23-0.17-0.46,0.2-0.24,0.37
						c3.37,2.69,7.66,4.28,11.89,4.68c0.01,2.11,0.01,4.23,0,6.34c-4.02,0.39-7.61-1.28-10.76-3.74c-0.07-0.06-0.17,0.07-0.1,0.13
						c2.86,2.41,6.92,5,10.86,4.38c0,0.67-0.01,1.35-0.01,2.02c0,0.41-0.01,0.82-0.01,1.24c-3.13-0.12-6.11-0.48-9.01-1.84
						c-0.08-0.04-0.13,0.09-0.05,0.13c2.81,1.48,5.9,2.18,9.05,2.34c-0.02,1.27-0.06,2.59-0.08,3.92c-0.81-0.15-1.6-0.35-2.45-0.38
						c-1.56-0.07-2.73-0.75-4.19-1.19c-0.13-0.04-0.22,0.16-0.09,0.2c1.29,0.44,2.31,1.18,3.69,1.33c1.03,0.12,2.02,0.34,3.03,0.52
						c-0.08,5.29,0.08,10.86,1.92,15.45c0.41,1.02,2.25,0.85,2.24-0.34C382.85,382.45,381.88,378.78,381.38,375.15z"/>
				</g>
				<polygon class="st33" points="399.39,379.52 398.87,389.01 398.07,403.78 396.75,428.05 363.89,428.05 362.57,403.78 
					361.76,389.01 361.25,379.52 				"/>
				<polygon class="st28" points="398.87,389.01 398.77,390.91 398.66,392.88 398.07,403.78 362.57,403.78 361.98,392.88 
					361.87,390.91 361.76,389.01 				"/>
				<polygon class="st33" points="398.77,390.91 398.66,392.88 361.98,392.88 361.87,390.91 				"/>
			</g>
		</g>
	</g>
</g>
<g id="Designed_By_Freepik">
</g>
</svg>
