<?xml version="1.0" encoding="utf-8"?>
<!-- Generator: Adobe Illustrator 24.1.3, SVG Export Plug-In . SVG Version: 6.00 Build 0)  -->
<svg version="1.1" xmlns="http://www.w3.org/2000/svg" xmlns:xlink="http://www.w3.org/1999/xlink" x="0px" y="0px"
	 viewBox="0 0 1200 1200" style="enable-background:new 0 0 1200 1200;" xml:space="preserve">
<style type="text/css">
	.st0{display:none;}
	.st1{display:inline;fill:#EDEAE8;}
</style>
<g id="Background" class="st0">
	<rect class="st1" width="1200" height="1200"/>
</g>
<g id="Graphic_Elements">
	<g>
		<path d="M677.51,426.64c19.76-19.81,31.98-47.13,31.98-77.32c0-60.46-49.02-109.48-109.48-109.48
			c-38.23,0-71.83,19.62-91.41,49.31c-5.2,5.21-441.03,542.38-445.1,548.55c-19.76,19.8-31.98,47.13-31.98,77.32
			c0,60.46,49.02,109.48,109.48,109.48c38.23,0,71.83-19.62,91.41-49.31C237.61,969.98,673.44,432.81,677.51,426.64z"/>
		<path d="M929.69,681.52c19.81-19.81,32.06-47.18,32.06-77.4c0-60.46-49.02-109.48-109.48-109.48c-38.24,0-71.86,19.64-91.44,49.35
			c-5.24,5.25-234.15,287.41-238.25,293.62c-19.81,19.81-32.06,47.18-32.06,77.4c0,60.46,49.02,109.48,109.48,109.48
			c38.24,0,71.86-19.64,91.44-49.35C696.68,969.9,925.59,687.74,929.69,681.52z"/>
		<g>
			
				<ellipse transform="matrix(0.2282 -0.9736 0.9736 0.2282 477.2154 1300.6636)" cx="1059.01" cy="349.33" rx="109.48" ry="109.48"/>
		</g>
		<g>
			<ellipse transform="matrix(0.9294 -0.3691 0.3691 0.9294 -118.9914 76.7167)" cx="140.99" cy="349.33" rx="109.48" ry="109.48"/>
		</g>
	</g>
</g>
<g id="Text">
</g>
</svg>
